<svg width="76" height="76" viewBox="0 0 76 76" fill="none" xmlns="http://www.w3.org/2000/svg">
<line y1="75.0024" x2="76" y2="75.0024" stroke="#677278" stroke-width="2"/>
<line x1="18" y1="5.00244" x2="58" y2="5.00244" stroke="#677278" stroke-width="2"/>
<line x1="18.0005" y1="1" x2="58.0005" y2="1" stroke="#677278" stroke-width="2"/>
<line x1="48" y1="22.0024" x2="68" y2="22.0024" stroke="#677278" stroke-width="2"/>
<line x1="48.0005" y1="18" x2="68.0005" y2="18" stroke="#677278" stroke-width="2"/>
<line x1="11" y1="39.0024" x2="11" y2="74.0024" stroke="#677278" stroke-width="2"/>
<line x1="49" y1="4.00244" x2="49" y2="22.0024" stroke="#677278" stroke-width="2"/>
<path d="M11.0005 33.0022L11.0005 38.0022" stroke="#677278" stroke-width="2"/>
<path d="M19.0005 1L19.0005 6" stroke="#677278" stroke-width="2"/>
<path d="M57.0005 1L57.0005 6" stroke="#677278" stroke-width="2"/>
<path d="M27.5 38.0024L10 38.0024" stroke="#677278" stroke-width="2"/>
<path d="M28.0005 34.0022L10.0005 34.0022" stroke="#677278" stroke-width="2"/>
<line x1="28" y1="4.00244" x2="28" y2="39.0024" stroke="#677278" stroke-width="2"/>
<path d="M67 18.5L67 74.0024" stroke="#677278" stroke-width="2"/>
<rect x="34" y="13.0024" width="9" height="9" fill="#2ABFC1" stroke="#677278" stroke-width="2"/>
<rect x="34" y="29.0024" width="9" height="9" stroke="#677278" stroke-width="2"/>
<rect x="49" y="29.0024" width="9" height="9" stroke="#677278" stroke-width="2"/>
<rect x="19" y="44.0024" width="9" height="9" stroke="#677278" stroke-width="2"/>
<rect x="34" y="44.0024" width="9" height="9" stroke="#677278" stroke-width="2"/>
<rect x="34" y="59.0024" width="9" height="16" stroke="#677278" stroke-width="2"/>
<rect x="49" y="44.0024" width="9" height="9" stroke="#677278" stroke-width="2"/>
<rect x="19" y="59.0024" width="9" height="9" stroke="#677278" stroke-width="2"/>
<rect x="49" y="59.0024" width="9" height="9" stroke="#677278" stroke-width="2"/>
</svg>
