<svg width="76" height="72" viewBox="0 0 76 72" fill="none" xmlns="http://www.w3.org/2000/svg">
<line y1="71" x2="76" y2="71" stroke="#677278" stroke-width="2"/>
<line x1="10" y1="1" x2="66" y2="0.999995" stroke="#677278" stroke-width="2"/>
<line x1="11" y1="4.37114e-08" x2="11" y2="70" stroke="#677278" stroke-width="2"/>
<line x1="67" y1="4.37114e-08" x2="67" y2="70" stroke="#677278" stroke-width="2"/>
<rect x="19" y="9" width="9" height="9" fill="#2ABFC1" stroke="#677278" stroke-width="2"/>
<rect x="34" y="9" width="9" height="9" fill="#2ABFC1" stroke="#677278" stroke-width="2"/>
<rect x="49" y="9" width="9" height="9" fill="#2ABFC1" stroke="#677278" stroke-width="2"/>
<rect x="19" y="25" width="9" height="9" stroke="#677278" stroke-width="2"/>
<rect x="34" y="25" width="9" height="9" stroke="#677278" stroke-width="2"/>
<rect x="49" y="25" width="9" height="9" stroke="#677278" stroke-width="2"/>
<rect x="19" y="40" width="9" height="9" stroke="#677278" stroke-width="2"/>
<rect x="34" y="40" width="9" height="9" stroke="#677278" stroke-width="2"/>
<rect x="34" y="55" width="9" height="16" stroke="#677278" stroke-width="2"/>
<rect x="49" y="40" width="9" height="9" stroke="#677278" stroke-width="2"/>
<rect x="19" y="55" width="9" height="9" stroke="#677278" stroke-width="2"/>
<rect x="49" y="55" width="9" height="9" stroke="#677278" stroke-width="2"/>
</svg>
