<svg width="120" height="96" viewBox="0 0 120 96" fill="none" xmlns="http://www.w3.org/2000/svg">
<path d="M30.4229 90H28.4457L31.4585 81.2727H33.8363L36.8448 90H34.8675L32.6815 83.267H32.6133L30.4229 90ZM30.2994 86.5696H34.9698V88.0099H30.2994V86.5696ZM37.8612 92.4545V83.4545H39.6509V84.554H39.7319C39.8114 84.3778 39.9265 84.1989 40.0771 84.017C40.2305 83.8324 40.4293 83.679 40.6737 83.5568C40.9208 83.4318 41.2276 83.3693 41.5941 83.3693C42.0714 83.3693 42.5117 83.4943 42.9151 83.7443C43.3185 83.9915 43.641 84.3651 43.8825 84.8651C44.1239 85.3622 44.2447 85.9858 44.2447 86.7358C44.2447 87.4659 44.1268 88.0824 43.891 88.5852C43.658 89.0852 43.3398 89.4645 42.9364 89.723C42.5359 89.9787 42.087 90.1065 41.5898 90.1065C41.2376 90.1065 40.9379 90.0483 40.6907 89.9318C40.4464 89.8153 40.2461 89.669 40.0898 89.4929C39.9336 89.3139 39.8143 89.1335 39.7319 88.9517H39.6765V92.4545H37.8612ZM39.6381 86.7273C39.6381 87.1165 39.6921 87.456 39.8001 87.7457C39.908 88.0355 40.0643 88.2614 40.2688 88.4233C40.4734 88.5824 40.7219 88.6619 41.0146 88.6619C41.31 88.6619 41.56 88.581 41.7646 88.419C41.9691 88.2543 42.1239 88.027 42.229 87.7372C42.337 87.4446 42.391 87.108 42.391 86.7273C42.391 86.3494 42.3384 86.017 42.2333 85.7301C42.1282 85.4432 41.9734 85.2187 41.7688 85.0568C41.5643 84.8949 41.3129 84.8139 41.0146 84.8139C40.7191 84.8139 40.4691 84.892 40.2646 85.0483C40.0629 85.2045 39.908 85.4261 39.8001 85.7131C39.6921 86 39.6381 86.3381 39.6381 86.7273ZM47.3214 90.1236C46.9038 90.1236 46.5316 90.0511 46.2049 89.9062C45.8782 89.7585 45.6197 89.5412 45.4293 89.2543C45.2418 88.9645 45.1481 88.6037 45.1481 88.1719C45.1481 87.8082 45.2148 87.5028 45.3484 87.2557C45.4819 87.0085 45.6637 86.8097 45.8938 86.6591C46.1239 86.5085 46.3853 86.3949 46.6779 86.3182C46.9734 86.2415 47.283 86.1875 47.6069 86.1562C47.9876 86.1165 48.2944 86.0795 48.5273 86.0455C48.7603 86.0085 48.9293 85.9545 49.0344 85.8835C49.1396 85.8125 49.1921 85.7074 49.1921 85.5682V85.5426C49.1921 85.2727 49.1069 85.0639 48.9364 84.9162C48.7688 84.7685 48.5302 84.6946 48.2205 84.6946C47.8938 84.6946 47.6339 84.767 47.4407 84.9119C47.2475 85.054 47.1197 85.233 47.0572 85.4489L45.3782 85.3125C45.4634 84.9148 45.631 84.571 45.881 84.2812C46.131 83.9886 46.4535 83.7642 46.8484 83.608C47.2461 83.4489 47.7063 83.3693 48.229 83.3693C48.5927 83.3693 48.9407 83.4119 49.2731 83.4972C49.6083 83.5824 49.9052 83.7145 50.1637 83.8935C50.4251 84.0724 50.631 84.3026 50.7816 84.5838C50.9322 84.8622 51.0075 85.196 51.0075 85.5852V90H49.2859V89.0923H49.2347C49.1296 89.2969 48.989 89.4773 48.8129 89.6335C48.6367 89.7869 48.4251 89.9077 48.1779 89.9957C47.9308 90.081 47.6452 90.1236 47.3214 90.1236ZM47.8413 88.8707C48.1083 88.8707 48.3441 88.8182 48.5487 88.7131C48.7532 88.6051 48.9137 88.4602 49.0302 88.2784C49.1467 88.0966 49.2049 87.8906 49.2049 87.6605V86.9659C49.1481 87.0028 49.07 87.0369 48.9705 87.0682C48.8739 87.0966 48.7646 87.1236 48.6424 87.1491C48.5202 87.1719 48.3981 87.1932 48.2759 87.2131C48.1538 87.2301 48.043 87.2457 47.9435 87.2599C47.7305 87.2912 47.5444 87.3409 47.3853 87.4091C47.2262 87.4773 47.1026 87.5696 47.0146 87.6861C46.9265 87.7997 46.8825 87.9418 46.8825 88.1122C46.8825 88.3594 46.9719 88.5483 47.1509 88.679C47.3327 88.8068 47.5629 88.8707 47.8413 88.8707ZM52.4158 90V83.4545H54.1758V84.5966H54.244C54.3633 84.1903 54.5636 83.8835 54.8448 83.6761C55.1261 83.4659 55.4499 83.3608 55.8164 83.3608C55.9073 83.3608 56.0053 83.3665 56.1104 83.3778C56.2156 83.3892 56.3079 83.4048 56.3874 83.4247V85.0355C56.3022 85.0099 56.1843 84.9872 56.0337 84.9673C55.8832 84.9474 55.7454 84.9375 55.6204 84.9375C55.3533 84.9375 55.1147 84.9957 54.9045 85.1122C54.6971 85.2259 54.5323 85.3849 54.4102 85.5895C54.2908 85.794 54.2312 86.0298 54.2312 86.2969V90H52.4158ZM61.1357 83.4545V84.8182H57.1939V83.4545H61.1357ZM58.0888 81.8864H59.9041V87.9886C59.9041 88.1562 59.9297 88.2869 59.9808 88.3807C60.032 88.4716 60.103 88.5355 60.1939 88.5724C60.2876 88.6094 60.3956 88.6278 60.5178 88.6278C60.603 88.6278 60.6882 88.6207 60.7734 88.6065C60.8587 88.5895 60.924 88.5767 60.9695 88.5682L61.255 89.919C61.1641 89.9474 61.0362 89.9801 60.8714 90.017C60.7067 90.0568 60.5064 90.081 60.2706 90.0895C59.8331 90.1065 59.4496 90.0483 59.12 89.9148C58.7933 89.7812 58.5391 89.5739 58.3572 89.2926C58.1754 89.0114 58.0859 88.6562 58.0888 88.2273V81.8864ZM62.3182 90V83.4545H64.0483V84.6094H64.125C64.2614 84.2259 64.4886 83.9233 64.8068 83.7017C65.125 83.4801 65.5057 83.3693 65.9489 83.3693C66.3977 83.3693 66.7798 83.4815 67.0952 83.706C67.4105 83.9276 67.6207 84.2287 67.7259 84.6094H67.794C67.9276 84.2344 68.169 83.9347 68.5185 83.7102C68.8707 83.483 69.2869 83.3693 69.767 83.3693C70.3778 83.3693 70.8736 83.5639 71.2543 83.9531C71.6378 84.3395 71.8295 84.8878 71.8295 85.598V90H70.0185V85.956C70.0185 85.5923 69.9219 85.3196 69.7287 85.1378C69.5355 84.956 69.294 84.8651 69.0043 84.8651C68.6747 84.8651 68.4176 84.9702 68.233 85.1804C68.0483 85.3878 67.956 85.6619 67.956 86.0028V90H66.196V85.9176C66.196 85.5966 66.1037 85.3409 65.919 85.1506C65.7372 84.9602 65.4972 84.8651 65.1989 84.8651C64.9972 84.8651 64.8153 84.9162 64.6534 85.0185C64.4943 85.1179 64.3679 85.2585 64.2741 85.4403C64.1804 85.6193 64.1335 85.8295 64.1335 86.071V90H62.3182ZM76.2464 90.1278C75.5732 90.1278 74.9936 89.9915 74.5078 89.7188C74.0249 89.4432 73.6527 89.054 73.3913 88.5511C73.13 88.0455 72.9993 87.4474 72.9993 86.7571C72.9993 86.0838 73.13 85.4929 73.3913 84.9844C73.6527 84.4759 74.0206 84.0795 74.495 83.7955C74.9723 83.5114 75.532 83.3693 76.174 83.3693C76.6058 83.3693 77.0078 83.4389 77.38 83.5781C77.755 83.7145 78.0817 83.9205 78.3601 84.196C78.6413 84.4716 78.8601 84.8182 79.0163 85.2358C79.1726 85.6506 79.2507 86.1364 79.2507 86.6932V87.1918H73.7237V86.0668H77.5419C77.5419 85.8054 77.4851 85.5739 77.3714 85.3722C77.2578 85.1705 77.1001 85.0128 76.8984 84.8991C76.6996 84.7827 76.468 84.7244 76.2038 84.7244C75.9283 84.7244 75.6839 84.7884 75.4709 84.9162C75.2607 85.0412 75.0959 85.2102 74.9766 85.4233C74.8572 85.6335 74.7962 85.8679 74.7933 86.1264V87.196C74.7933 87.5199 74.853 87.7997 74.9723 88.0355C75.0945 88.2713 75.2663 88.4531 75.4879 88.581C75.7095 88.7088 75.9723 88.7727 76.2763 88.7727C76.478 88.7727 76.6626 88.7443 76.8303 88.6875C76.9979 88.6307 77.1413 88.5455 77.2607 88.4318C77.38 88.3182 77.4709 88.179 77.5334 88.0142L79.2124 88.125C79.1271 88.5284 78.9524 88.8807 78.6882 89.1818C78.4268 89.4801 78.0888 89.7131 77.674 89.8807C77.2621 90.0455 76.7862 90.1278 76.2464 90.1278ZM82.2507 86.2159V90H80.4354V83.4545H82.1655V84.6094H82.2422C82.3871 84.2287 82.63 83.9276 82.9709 83.706C83.3118 83.4815 83.7251 83.3693 84.2109 83.3693C84.6655 83.3693 85.0618 83.4688 85.3999 83.6676C85.7379 83.8665 86.0007 84.1506 86.1882 84.5199C86.3757 84.8864 86.4695 85.3239 86.4695 85.8324V90H84.6541V86.1562C84.657 85.7557 84.5547 85.4432 84.3473 85.2188C84.1399 84.9915 83.8544 84.8778 83.4908 84.8778C83.2464 84.8778 83.0305 84.9304 82.843 85.0355C82.6584 85.1406 82.5135 85.294 82.4084 85.4957C82.3061 85.6946 82.2536 85.9347 82.2507 86.2159ZM91.3817 83.4545V84.8182H87.44V83.4545H91.3817ZM88.3349 81.8864H90.1502V87.9886C90.1502 88.1562 90.1758 88.2869 90.2269 88.3807C90.2781 88.4716 90.3491 88.5355 90.44 88.5724C90.5337 88.6094 90.6417 88.6278 90.7638 88.6278C90.8491 88.6278 90.9343 88.6207 91.0195 88.6065C91.1048 88.5895 91.1701 88.5767 91.2156 88.5682L91.5011 89.919C91.4102 89.9474 91.2823 89.9801 91.1175 90.017C90.9528 90.0568 90.7525 90.081 90.5167 90.0895C90.0792 90.1065 89.6957 90.0483 89.3661 89.9148C89.0394 89.7812 88.7852 89.5739 88.6033 89.2926C88.4215 89.0114 88.332 88.6562 88.3349 88.2273V81.8864Z" fill="#677278"/>
<line x1="22" y1="75.0024" x2="98" y2="75.0024" stroke="#677278" stroke-width="2"/>
<line x1="40" y1="5.00244" x2="80" y2="5.00244" stroke="#677278" stroke-width="2"/>
<line x1="40.0005" y1="1" x2="80.0005" y2="1" stroke="#677278" stroke-width="2"/>
<line x1="70" y1="22.0024" x2="90" y2="22.0024" stroke="#677278" stroke-width="2"/>
<line x1="70.0005" y1="18" x2="90.0005" y2="18" stroke="#677278" stroke-width="2"/>
<line x1="33" y1="39.0024" x2="33" y2="74.0024" stroke="#677278" stroke-width="2"/>
<line x1="71" y1="4.00244" x2="71" y2="22.0024" stroke="#677278" stroke-width="2"/>
<path d="M33.0005 33.0022L33.0005 38.0022" stroke="#677278" stroke-width="2"/>
<path d="M41.0005 1L41.0005 6" stroke="#677278" stroke-width="2"/>
<path d="M79.0005 1L79.0005 6" stroke="#677278" stroke-width="2"/>
<path d="M49.5 38.0024L32 38.0024" stroke="#677278" stroke-width="2"/>
<path d="M50.0005 34.0022L32.0005 34.0022" stroke="#677278" stroke-width="2"/>
<line x1="50" y1="4.00244" x2="50" y2="39.0024" stroke="#677278" stroke-width="2"/>
<path d="M89 18.5L89 74.0024" stroke="#677278" stroke-width="2"/>
<rect x="56" y="13.0024" width="9" height="9" fill="white" stroke="#677278" stroke-width="2"/>
<rect x="56" y="29.0024" width="9" height="9" stroke="#677278" stroke-width="2"/>
<rect x="71" y="29.0024" width="9" height="9" stroke="#677278" stroke-width="2"/>
<rect x="41" y="44.0024" width="9" height="9" stroke="#677278" stroke-width="2"/>
<rect x="56" y="44.0024" width="9" height="9" stroke="#677278" stroke-width="2"/>
<rect x="56" y="59.0024" width="9" height="16" stroke="#677278" stroke-width="2"/>
<rect x="71" y="44.0024" width="9" height="9" stroke="#677278" stroke-width="2"/>
<rect x="41" y="59.0024" width="9" height="9" stroke="#677278" stroke-width="2"/>
<rect x="71" y="59.0024" width="9" height="9" stroke="#677278" stroke-width="2"/>
</svg>
