<svg width="120" height="86" viewBox="0 0 120 86" fill="none" xmlns="http://www.w3.org/2000/svg">
<path d="M31.7136 80V71.2727H35.2079C35.85 71.2727 36.3855 71.3679 36.8145 71.5582C37.2434 71.7486 37.5659 72.0128 37.7818 72.3509C37.9977 72.6861 38.1056 73.0724 38.1056 73.5099C38.1056 73.8509 38.0375 74.1506 37.9011 74.4091C37.7647 74.6648 37.5772 74.875 37.3386 75.0398C37.1028 75.2017 36.8329 75.3168 36.5289 75.3849V75.4702C36.8613 75.4844 37.1724 75.5781 37.4622 75.7514C37.7548 75.9247 37.992 76.1676 38.1738 76.4801C38.3556 76.7898 38.4466 77.1591 38.4466 77.5881C38.4466 78.0511 38.3315 78.4645 38.1014 78.8281C37.8741 79.1889 37.5375 79.4744 37.0914 79.6847C36.6454 79.8949 36.0957 80 35.4423 80H31.7136ZM33.5588 78.4915H35.063C35.5772 78.4915 35.9522 78.3935 36.188 78.1974C36.4238 77.9986 36.5417 77.7344 36.5417 77.4048C36.5417 77.1634 36.4835 76.9503 36.367 76.7656C36.2505 76.581 36.0843 76.4361 35.8684 76.331C35.6554 76.2259 35.4011 76.1733 35.1056 76.1733H33.5588V78.4915ZM33.5588 74.9247H34.9267C35.1795 74.9247 35.4039 74.8807 35.6 74.7926C35.7988 74.7017 35.9551 74.5739 36.0687 74.4091C36.1852 74.2443 36.2434 74.0469 36.2434 73.8168C36.2434 73.5014 36.1312 73.2472 35.9068 73.054C35.6852 72.8608 35.3699 72.7642 34.9608 72.7642H33.5588V74.9247ZM43.8105 77.2131V73.4545H45.6259V80H43.883V78.8111H43.8148C43.6671 79.1946 43.4213 79.5028 43.0776 79.7358C42.7367 79.9687 42.3205 80.0852 41.829 80.0852C41.3915 80.0852 41.0066 79.9858 40.6742 79.7869C40.3418 79.5881 40.0819 79.3054 39.8944 78.9389C39.7097 78.5724 39.6159 78.1335 39.6131 77.6222V73.4545H41.4284V77.2983C41.4313 77.6847 41.535 77.9901 41.7395 78.2145C41.9441 78.4389 42.2182 78.5511 42.562 78.5511C42.7807 78.5511 42.9853 78.5014 43.1756 78.402C43.3659 78.2997 43.5194 78.1491 43.6358 77.9503C43.7551 77.7514 43.8134 77.5057 43.8105 77.2131ZM48.8933 76.2159V80H47.0779V73.4545H48.8081V74.6094H48.8848C49.0297 74.2287 49.2725 73.9276 49.6135 73.706C49.9544 73.4815 50.3677 73.3693 50.8535 73.3693C51.3081 73.3693 51.7044 73.4688 52.0424 73.6676C52.3805 73.8665 52.6433 74.1506 52.8308 74.5199C53.0183 74.8864 53.112 75.3239 53.112 75.8324V80H51.2967V76.1562C51.2995 75.7557 51.1973 75.4432 50.9899 75.2188C50.7825 74.9915 50.497 74.8778 50.1333 74.8778C49.889 74.8778 49.6731 74.9304 49.4856 75.0355C49.301 75.1406 49.1561 75.294 49.051 75.4957C48.9487 75.6946 48.8961 75.9347 48.8933 76.2159ZM57.4917 82.5909C56.9036 82.5909 56.3993 82.5099 55.9789 82.348C55.5613 82.1889 55.2289 81.9716 54.9817 81.696C54.7346 81.4205 54.574 81.1108 54.5002 80.767L56.1792 80.5412C56.2303 80.6719 56.3113 80.794 56.4221 80.9077C56.5328 81.0213 56.6792 81.1122 56.861 81.1804C57.0456 81.2514 57.2701 81.2869 57.5343 81.2869C57.9292 81.2869 58.2544 81.1903 58.5101 80.9972C58.7686 80.8068 58.8979 80.4872 58.8979 80.0384V78.8409H58.8212C58.7417 79.0227 58.6223 79.1946 58.4632 79.3565C58.3042 79.5185 58.0996 79.6506 57.8496 79.7528C57.5996 79.8551 57.3013 79.9062 56.9547 79.9062C56.4632 79.9062 56.0158 79.7926 55.6124 79.5653C55.2118 79.3352 54.8922 78.9844 54.6536 78.5128C54.4178 78.0384 54.2999 77.4389 54.2999 76.7145C54.2999 75.973 54.4206 75.3537 54.6621 74.8565C54.9036 74.3594 55.2246 73.9872 55.6252 73.7401C56.0286 73.4929 56.4703 73.3693 56.9505 73.3693C57.3169 73.3693 57.6238 73.4318 57.8709 73.5568C58.1181 73.679 58.3169 73.8324 58.4675 74.017C58.6209 74.1989 58.7388 74.3778 58.8212 74.554H58.8894V73.4545H60.6919V80.0639C60.6919 80.6207 60.5556 81.0866 60.2828 81.4616C60.0101 81.8366 59.6323 82.1179 59.1493 82.3054C58.6692 82.4957 58.1167 82.5909 57.4917 82.5909ZM57.53 78.5426C57.8226 78.5426 58.0698 78.4702 58.2715 78.3253C58.476 78.1776 58.6323 77.9673 58.7402 77.6946C58.851 77.419 58.9064 77.0895 58.9064 76.706C58.9064 76.3224 58.8525 75.9901 58.7445 75.7088C58.6365 75.4247 58.4803 75.2045 58.2757 75.0483C58.0712 74.892 57.8226 74.8139 57.53 74.8139C57.2317 74.8139 56.9803 74.8949 56.7757 75.0568C56.5712 75.2159 56.4164 75.4375 56.3113 75.7216C56.2061 76.0057 56.1536 76.3338 56.1536 76.706C56.1536 77.0838 56.2061 77.4105 56.3113 77.6861C56.4192 77.9588 56.574 78.1705 56.7757 78.321C56.9803 78.4687 57.2317 78.5426 57.53 78.5426ZM64.003 80.1236C63.5854 80.1236 63.2132 80.0511 62.8865 79.9062C62.5598 79.7585 62.3013 79.5412 62.111 79.2543C61.9235 78.9645 61.8297 78.6037 61.8297 78.1719C61.8297 77.8082 61.8965 77.5028 62.03 77.2557C62.1635 77.0085 62.3453 76.8097 62.5755 76.6591C62.8056 76.5085 63.0669 76.3949 63.3596 76.3182C63.655 76.2415 63.9647 76.1875 64.2885 76.1562C64.6692 76.1165 64.976 76.0795 65.209 76.0455C65.4419 76.0085 65.611 75.9545 65.7161 75.8835C65.8212 75.8125 65.8738 75.7074 65.8738 75.5682V75.5426C65.8738 75.2727 65.7885 75.0639 65.6181 74.9162C65.4505 74.7685 65.2118 74.6946 64.9022 74.6946C64.5755 74.6946 64.3155 74.767 64.1223 74.9119C63.9292 75.054 63.8013 75.233 63.7388 75.4489L62.0598 75.3125C62.1451 74.9148 62.3127 74.571 62.5627 74.2812C62.8127 73.9886 63.1351 73.7642 63.53 73.608C63.9277 73.4489 64.388 73.3693 64.9107 73.3693C65.2743 73.3693 65.6223 73.4119 65.9547 73.4972C66.29 73.5824 66.5868 73.7145 66.8453 73.8935C67.1067 74.0724 67.3127 74.3026 67.4632 74.5838C67.6138 74.8622 67.6891 75.196 67.6891 75.5852V80H65.9675V79.0923H65.9164C65.8113 79.2969 65.6706 79.4773 65.4945 79.6335C65.3184 79.7869 65.1067 79.9077 64.8596 79.9957C64.6124 80.081 64.3269 80.1236 64.003 80.1236ZM64.5229 78.8707C64.79 78.8707 65.0257 78.8182 65.2303 78.7131C65.4348 78.6051 65.5953 78.4602 65.7118 78.2784C65.8283 78.0966 65.8865 77.8906 65.8865 77.6605V76.9659C65.8297 77.0028 65.7516 77.0369 65.6522 77.0682C65.5556 77.0966 65.4462 77.1236 65.324 77.1491C65.2019 77.1719 65.0797 77.1932 64.9576 77.2131C64.8354 77.2301 64.7246 77.2457 64.6252 77.2599C64.4121 77.2912 64.226 77.3409 64.0669 77.4091C63.9078 77.4773 63.7843 77.5696 63.6962 77.6861C63.6081 77.7997 63.5641 77.9418 63.5641 78.1122C63.5641 78.3594 63.6536 78.5483 63.8326 78.679C64.0144 78.8068 64.2445 78.8707 64.5229 78.8707ZM70.9128 71.2727V80H69.0975V71.2727H70.9128ZM75.3244 80.1278C74.6625 80.1278 74.09 79.9872 73.6071 79.706C73.127 79.4219 72.7562 79.027 72.4949 78.5213C72.2335 78.0128 72.1028 77.4233 72.1028 76.7528C72.1028 76.0767 72.2335 75.4858 72.4949 74.9801C72.7562 74.4716 73.127 74.0767 73.6071 73.7955C74.09 73.5114 74.6625 73.3693 75.3244 73.3693C75.9863 73.3693 76.5574 73.5114 77.0375 73.7955C77.5204 74.0767 77.8926 74.4716 78.1539 74.9801C78.4153 75.4858 78.546 76.0767 78.546 76.7528C78.546 77.4233 78.4153 78.0128 78.1539 78.5213C77.8926 79.027 77.5204 79.4219 77.0375 79.706C76.5574 79.9872 75.9863 80.1278 75.3244 80.1278ZM75.3329 78.7216C75.6341 78.7216 75.8855 78.6364 76.0872 78.4659C76.2889 78.2926 76.4409 78.0568 76.5431 77.7585C76.6483 77.4602 76.7008 77.1207 76.7008 76.7401C76.7008 76.3594 76.6483 76.0199 76.5431 75.7216C76.4409 75.4233 76.2889 75.1875 76.0872 75.0142C75.8855 74.8409 75.6341 74.7543 75.3329 74.7543C75.0289 74.7543 74.7733 74.8409 74.5659 75.0142C74.3613 75.1875 74.2065 75.4233 74.1014 75.7216C73.9991 76.0199 73.948 76.3594 73.948 76.7401C73.948 77.1207 73.9991 77.4602 74.1014 77.7585C74.2065 78.0568 74.3613 78.2926 74.5659 78.4659C74.7733 78.6364 75.0289 78.7216 75.3329 78.7216ZM80.8535 80L79.0723 73.4545H80.9089L81.9231 77.8523H81.9828L83.0396 73.4545H84.8422L85.916 77.8267H85.9714L86.9686 73.4545H88.801L87.024 80H85.1021L83.9771 75.8835H83.8961L82.7711 80H80.8535Z" fill="#677278"/>
<line x1="64.4316" y1="51.7859" x2="64.4415" y2="48.3732" stroke="#677278" stroke-width="2" stroke-linecap="round"/>
<line x1="61.7253" y1="51.7782" x2="61.7352" y2="48.3655" stroke="#677278" stroke-width="2" stroke-linecap="round"/>
<path d="M61.8904 47.9933L64.1094 47.9933" stroke="#677278" stroke-width="2" stroke-linecap="round"/>
<path d="M61.8904 52.0423L64.1094 52.0423" stroke="#677278" stroke-width="2" stroke-linecap="round"/>
<path d="M48.3511 8.95868L87.6862 8.82959" stroke="#677278" stroke-width="2" stroke-linecap="round"/>
<path d="M98.6421 31.9109L22.195 31.8778" stroke="#677278" stroke-width="2" stroke-linecap="round"/>
<line x1="92.8225" y1="60.6343" x2="28.5172" y2="60.4478" stroke="#677278" stroke-width="2" stroke-linecap="round"/>
<path d="M40.8101 18.4551L48.3591 18.4551" stroke="#677278" stroke-width="2" stroke-linecap="round"/>
<path d="M47.3271 38.4713L33.7799 38.2678" stroke="#677278" stroke-width="2" stroke-linecap="round"/>
<path d="M46.887 45.2566L34.0161 45.0295" stroke="#677278" stroke-width="2" stroke-linecap="round"/>
<path d="M47.1234 52.0185L33.5763 51.815" stroke="#677278" stroke-width="2" stroke-linecap="round"/>
<path d="M47.1232 52.0185L47.327 38.4715" stroke="#677278" stroke-width="2" stroke-linecap="round"/>
<path d="M40.3377 51.5785L40.5651 38.7076" stroke="#677278" stroke-width="2" stroke-linecap="round"/>
<path d="M33.5762 51.8149L33.7796 38.2677" stroke="#677278" stroke-width="2" stroke-linecap="round"/>
<path d="M87.9482 38.8224L74.401 38.6189" stroke="#677278" stroke-width="2" stroke-linecap="round"/>
<path d="M87.5083 45.6078L74.6374 45.3807" stroke="#677278" stroke-width="2" stroke-linecap="round"/>
<path d="M87.7448 52.3697L74.1976 52.1662" stroke="#677278" stroke-width="2" stroke-linecap="round"/>
<path d="M87.7448 52.3696L87.9486 38.8226" stroke="#677278" stroke-width="2" stroke-linecap="round"/>
<path d="M80.9593 51.9297L81.1867 39.0587" stroke="#677278" stroke-width="2" stroke-linecap="round"/>
<path d="M74.1975 52.166L74.401 38.6188" stroke="#677278" stroke-width="2" stroke-linecap="round"/>
<line x1="1" y1="-1" x2="8.47223" y2="-1" transform="matrix(0.999998 0.00202029 0.00202029 -0.999998 39.4771 0.102966)" stroke="#677278" stroke-width="2" stroke-linecap="round"/>
<path d="M33.3796 9.68147C32.8275 9.66626 32.3923 9.20639 32.4075 8.65432C32.4227 8.10224 32.8825 7.66702 33.4346 7.68222L33.3796 9.68147ZM33.4346 7.68222L40.2317 7.86941L40.1766 9.86865L33.3796 9.68147L33.4346 7.68222Z" fill="#677278"/>
<path d="M48.3591 18.455L48.3591 1.39187" stroke="#677278" stroke-width="2" stroke-linecap="round"/>
<path d="M28.1948 60.1234L28.3171 32.1137" stroke="#677278" stroke-width="2" stroke-linecap="round"/>
<line x1="92.8244" y1="59.9875" x2="92.905" y2="32.2177" stroke="#677278" stroke-width="2" stroke-linecap="round"/>
<line x1="1" y1="-1" x2="17.9445" y2="-1" transform="matrix(0.00202023 -0.999998 -0.999998 -0.00202023 39.439 19.0479)" stroke="#677278" stroke-width="2" stroke-linecap="round"/>
<line x1="67.1751" y1="38.909" x2="54.2902" y2="38.8716" stroke="#677278" stroke-width="2" stroke-linecap="round"/>
<path d="M54.0329 59.4245L54.0329 39.1147" stroke="#677278" stroke-width="2" stroke-linecap="round"/>
<path d="M67.6272 59.7989L67.6271 39.1147" stroke="#677278" stroke-width="2" stroke-linecap="round"/>
<path d="M33.0723 8.70612L22.1802 31.6786" stroke="#677278" stroke-width="2" stroke-linecap="round"/>
<path d="M87.686 8.82965L98.8407 31.7659" stroke="#677278" stroke-width="2" stroke-linecap="round"/>
</svg>
