<svg width="108" height="86" viewBox="0 0 108 86" fill="none" xmlns="http://www.w3.org/2000/svg">
<g opacity="0.9">
<path d="M90.4675 83.4646L90.4675 49.101" stroke="#2ABFC1" stroke-width="2"/>
<path d="M90.4675 59.6204L97.4805 51.2048" stroke="#2ABFC1" stroke-width="2"/>
<path d="M90.4675 49.8022L96.0779 39.2828" stroke="#2ABFC1" stroke-width="2"/>
<path d="M90.4675 49.8022L84.1558 35.7763" stroke="#2ABFC1" stroke-width="2"/>
<path d="M66.6233 84.1658H108" stroke="#2ABFC1" stroke-width="2"/>
<line x1="15.9422" y1="13.3404" x2="5.78547" y2="23.4971" stroke="#2ABFC1" stroke-width="2"/>
<line x1="58.4014" y1="13.6333" x2="15.2352" y2="13.6333" stroke="#2ABFC1" stroke-width="2"/>
<line x1="63.4795" y1="49.1819" x2="10.1566" y2="49.1819" stroke="#2ABFC1" stroke-width="2"/>
<line x1="73.6365" y1="59.3386" x2="0.000106812" y2="59.3386" stroke="#2ABFC1" stroke-width="2"/>
<line x1="67.2883" y1="84.7305" x2="7.61749" y2="84.7305" stroke="#2ABFC1" stroke-width="2"/>
<line x1="68.5581" y1="23.79" x2="5.07848" y2="23.79" stroke="#2ABFC1" stroke-width="2"/>
<line x1="10.4263" y1="48.1819" x2="10.4263" y2="22.79" stroke="#2ABFC1" stroke-width="2"/>
<line x1="6.61743" y1="85" x2="6.61743" y2="58.3386" stroke="#2ABFC1" stroke-width="2"/>
<line x1="14.2351" y1="85" x2="14.2351" y2="62.1473" stroke="#2ABFC1" stroke-width="2"/>
<line x1="44.7053" y1="85" x2="44.7053" y2="62.1473" stroke="#2ABFC1" stroke-width="2"/>
<line x1="58.6709" y1="85" x2="58.6709" y2="62.1473" stroke="#2ABFC1" stroke-width="2"/>
<line x1="35.8181" y1="85" x2="35.8181" y2="62.1473" stroke="#2ABFC1" stroke-width="2"/>
<line x1="66.2883" y1="85" x2="66.2883" y2="58.3386" stroke="#2ABFC1" stroke-width="2"/>
<line x1="18.0439" y1="44.373" x2="18.0439" y2="27.8683" stroke="#2ABFC1" stroke-width="2"/>
<line x1="40.8965" y1="44.373" x2="40.8965" y2="27.8683" stroke="#2ABFC1" stroke-width="2"/>
<line x1="45.9749" y1="44.373" x2="45.9749" y2="27.8683" stroke="#2ABFC1" stroke-width="2"/>
<line x1="17.7744" y1="28.1379" x2="26.6616" y2="28.1379" stroke="#2ABFC1" stroke-width="2"/>
<line x1="17.7744" y1="43.373" x2="26.6616" y2="43.373" stroke="#2ABFC1" stroke-width="2"/>
<line x1="13.9656" y1="62.417" x2="36.8182" y2="62.417" stroke="#2ABFC1" stroke-width="2"/>
<line x1="13.9656" y1="67.4954" x2="36.8182" y2="67.4954" stroke="#2ABFC1" stroke-width="2"/>
<line x1="13.9656" y1="72.5737" x2="36.8182" y2="72.5737" stroke="#2ABFC1" stroke-width="2"/>
<line x1="13.9656" y1="77.6521" x2="36.8182" y2="77.6521" stroke="#2ABFC1" stroke-width="2"/>
<line x1="44.4358" y1="62.417" x2="59.6709" y2="62.417" stroke="#2ABFC1" stroke-width="2"/>
<line x1="17.7744" y1="35.7556" x2="26.6616" y2="35.7556" stroke="#2ABFC1" stroke-width="2"/>
<line x1="46.9749" y1="28.1379" x2="55.862" y2="28.1379" stroke="#2ABFC1" stroke-width="2"/>
<line x1="46.9749" y1="43.373" x2="55.862" y2="43.373" stroke="#2ABFC1" stroke-width="2"/>
<line x1="46.9749" y1="35.7556" x2="55.862" y2="35.7556" stroke="#2ABFC1" stroke-width="2"/>
<line x1="31.7397" y1="28.1379" x2="40.6269" y2="28.1379" stroke="#2ABFC1" stroke-width="2"/>
<line x1="31.7397" y1="43.373" x2="40.6269" y2="43.373" stroke="#2ABFC1" stroke-width="2"/>
<line x1="31.7397" y1="35.7556" x2="40.6269" y2="35.7556" stroke="#2ABFC1" stroke-width="2"/>
<line x1="54.8621" y1="44.373" x2="54.8621" y2="27.8683" stroke="#2ABFC1" stroke-width="2"/>
<line x1="56.1316" y1="76.113" x2="56.1316" y2="71.0347" stroke="#2ABFC1" stroke-width="2"/>
<line x1="53.5925" y1="76.113" x2="53.5925" y2="71.0347" stroke="#2ABFC1" stroke-width="2"/>
<line x1="54.5925" y1="71.3042" x2="57.1317" y2="71.3042" stroke="#2ABFC1" stroke-width="2"/>
<line x1="54.5925" y1="75.113" x2="57.1317" y2="75.113" stroke="#2ABFC1" stroke-width="2"/>
<line x1="32.0093" y1="44.373" x2="32.0093" y2="27.8683" stroke="#2ABFC1" stroke-width="2"/>
<line x1="26.9312" y1="44.373" x2="26.9312" y2="27.8683" stroke="#2ABFC1" stroke-width="2"/>
<path d="M62.7783 48.1819L62.7783 22.79" stroke="#2ABFC1" stroke-width="2"/>
<line y1="-1" x2="14.3638" y2="-1" transform="matrix(0.707107 0.707107 0.707107 -0.707107 58.4014 12.6333)" stroke="#2ABFC1" stroke-width="2"/>
<line x1="10.8638" y1="48.889" x2="0.707105" y2="59.0457" stroke="#2ABFC1" stroke-width="2"/>
<line y1="-1" x2="14.3638" y2="-1" transform="matrix(0.707107 0.707107 0.707107 -0.707107 63.4795 48.1819)" stroke="#2ABFC1" stroke-width="2"/>
</g>
<path d="M105.499 40.8664C107.276 50.5114 105.457 56.0918 102.394 59.2779C99.2966 62.4998 94.6888 63.5294 90.3529 63.5294C86.0205 63.5294 81.5235 62.5014 78.4797 59.2837C75.4605 56.092 73.6445 50.5001 75.2102 40.8453L74.2235 40.6853L75.2102 40.8453C76.24 34.4947 78.6426 28.6741 81.5343 24.4641C82.9803 22.359 84.5294 20.6843 86.0623 19.5448C87.6013 18.4008 89.0613 17.8411 90.3529 17.8411C91.3539 17.8411 92.6533 18.3544 94.1408 19.4882C95.6087 20.6072 97.1638 22.2585 98.6561 24.3476C101.64 28.5248 104.299 34.3494 105.499 40.8664Z" stroke="#2ABFC1" stroke-width="2"/>
<circle cx="74.6883" cy="6.67222" r="4.96104" stroke="#2ABFC1" stroke-width="2"/>
</svg>
