<svg width="120" height="92" viewBox="0 0 120 92" fill="none" xmlns="http://www.w3.org/2000/svg">
<path d="M22.7823 84.4659V83.0128L26.4258 77.2727H27.6786V79.2841H26.9371L24.6403 82.919V82.9872H29.8178V84.4659H22.7823ZM26.9712 86V84.0227L27.0053 83.3793V77.2727H28.7354V86H26.9712ZM35.1424 80.9162V82.3565H31.1623V80.9162H35.1424ZM36.7234 86V77.2727H40.1665C40.8256 77.2727 41.3881 77.3906 41.854 77.6264C42.3228 77.8594 42.6793 78.1903 42.9237 78.6193C43.1708 79.0455 43.2944 79.5469 43.2944 80.1236C43.2944 80.7031 43.1694 81.2017 42.9194 81.6193C42.6694 82.0341 42.3072 82.3523 41.8327 82.5739C41.3612 82.7955 40.7901 82.9062 40.1197 82.9062H37.8143V81.4233H39.8214C40.1737 81.4233 40.4663 81.375 40.6992 81.2784C40.9322 81.1818 41.1055 81.0369 41.2191 80.8438C41.3356 80.6506 41.3938 80.4105 41.3938 80.1236C41.3938 79.8338 41.3356 79.5895 41.2191 79.3906C41.1055 79.1918 40.9308 79.0412 40.695 78.9389C40.462 78.8338 40.168 78.7812 39.8129 78.7812H38.5685V86H36.7234ZM41.4364 82.0284L43.6055 86H41.5685L39.4464 82.0284H41.4364ZM47.4162 86.1278C46.7543 86.1278 46.1818 85.9872 45.6989 85.706C45.2188 85.4219 44.848 85.027 44.5866 84.5213C44.3253 84.0128 44.1946 83.4233 44.1946 82.7528C44.1946 82.0767 44.3253 81.4858 44.5866 80.9801C44.848 80.4716 45.2188 80.0767 45.6989 79.7955C46.1818 79.5114 46.7543 79.3693 47.4162 79.3693C48.0781 79.3693 48.6491 79.5114 49.1293 79.7955C49.6122 80.0767 49.9844 80.4716 50.2457 80.9801C50.5071 81.4858 50.6378 82.0767 50.6378 82.7528C50.6378 83.4233 50.5071 84.0128 50.2457 84.5213C49.9844 85.027 49.6122 85.4219 49.1293 85.706C48.6491 85.9872 48.0781 86.1278 47.4162 86.1278ZM47.4247 84.7216C47.7259 84.7216 47.9773 84.6364 48.179 84.4659C48.3807 84.2926 48.5327 84.0568 48.6349 83.7585C48.7401 83.4602 48.7926 83.1207 48.7926 82.7401C48.7926 82.3594 48.7401 82.0199 48.6349 81.7216C48.5327 81.4233 48.3807 81.1875 48.179 81.0142C47.9773 80.8409 47.7259 80.7543 47.4247 80.7543C47.1207 80.7543 46.8651 80.8409 46.6577 81.0142C46.4531 81.1875 46.2983 81.4233 46.1932 81.7216C46.0909 82.0199 46.0398 82.3594 46.0398 82.7401C46.0398 83.1207 46.0909 83.4602 46.1932 83.7585C46.2983 84.0568 46.4531 84.2926 46.6577 84.4659C46.8651 84.6364 47.1207 84.7216 47.4247 84.7216ZM54.7756 86.1278C54.1136 86.1278 53.5412 85.9872 53.0582 85.706C52.5781 85.4219 52.2074 85.027 51.946 84.5213C51.6847 84.0128 51.554 83.4233 51.554 82.7528C51.554 82.0767 51.6847 81.4858 51.946 80.9801C52.2074 80.4716 52.5781 80.0767 53.0582 79.7955C53.5412 79.5114 54.1136 79.3693 54.7756 79.3693C55.4375 79.3693 56.0085 79.5114 56.4886 79.7955C56.9716 80.0767 57.3438 80.4716 57.6051 80.9801C57.8665 81.4858 57.9972 82.0767 57.9972 82.7528C57.9972 83.4233 57.8665 84.0128 57.6051 84.5213C57.3438 85.027 56.9716 85.4219 56.4886 85.706C56.0085 85.9872 55.4375 86.1278 54.7756 86.1278ZM54.7841 84.7216C55.0852 84.7216 55.3366 84.6364 55.5384 84.4659C55.7401 84.2926 55.892 84.0568 55.9943 83.7585C56.0994 83.4602 56.152 83.1207 56.152 82.7401C56.152 82.3594 56.0994 82.0199 55.9943 81.7216C55.892 81.4233 55.7401 81.1875 55.5384 81.0142C55.3366 80.8409 55.0852 80.7543 54.7841 80.7543C54.4801 80.7543 54.2244 80.8409 54.017 81.0142C53.8125 81.1875 53.6577 81.4233 53.5526 81.7216C53.4503 82.0199 53.3991 82.3594 53.3991 82.7401C53.3991 83.1207 53.4503 83.4602 53.5526 83.7585C53.6577 84.0568 53.8125 84.2926 54.017 84.4659C54.2244 84.6364 54.4801 84.7216 54.7841 84.7216ZM59.1776 86V79.4545H60.9077V80.6094H60.9844C61.1207 80.2259 61.348 79.9233 61.6662 79.7017C61.9844 79.4801 62.3651 79.3693 62.8082 79.3693C63.2571 79.3693 63.6392 79.4815 63.9545 79.706C64.2699 79.9276 64.4801 80.2287 64.5852 80.6094H64.6534C64.7869 80.2344 65.0284 79.9347 65.3778 79.7102C65.7301 79.483 66.1463 79.3693 66.6264 79.3693C67.2372 79.3693 67.733 79.5639 68.1136 79.9531C68.4972 80.3395 68.6889 80.8878 68.6889 81.598V86H66.8778V81.956C66.8778 81.5923 66.7813 81.3196 66.5881 81.1378C66.3949 80.956 66.1534 80.8651 65.8636 80.8651C65.5341 80.8651 65.277 80.9702 65.0923 81.1804C64.9077 81.3878 64.8153 81.6619 64.8153 82.0028V86H63.0554V81.9176C63.0554 81.5966 62.9631 81.3409 62.7784 81.1506C62.5966 80.9602 62.3565 80.8651 62.0582 80.8651C61.8565 80.8651 61.6747 80.9162 61.5128 81.0185C61.3537 81.1179 61.2273 81.2585 61.1335 81.4403C61.0398 81.6193 60.9929 81.8295 60.9929 82.071V86H59.1776ZM72.9343 86V77.2727H74.7795V80.8736H78.5252V77.2727H80.3661V86H78.5252V82.3949H74.7795V86H72.9343ZM84.9812 86H81.8874V77.2727H85.0067C85.8846 77.2727 86.6403 77.4474 87.2738 77.7969C87.9073 78.1435 88.3945 78.642 88.7354 79.2926C89.0792 79.9432 89.2511 80.7216 89.2511 81.6278C89.2511 82.5369 89.0792 83.3182 88.7354 83.9716C88.3945 84.625 87.9045 85.1264 87.2653 85.4759C86.6289 85.8253 85.8675 86 84.9812 86ZM83.7326 84.419H84.9045C85.4499 84.419 85.9087 84.3224 86.2809 84.1293C86.6559 83.9332 86.9371 83.6307 87.1246 83.2216C87.315 82.8097 87.4102 82.2784 87.4102 81.6278C87.4102 80.983 87.315 80.456 87.1246 80.0469C86.9371 79.6378 86.6573 79.3366 86.2852 79.1435C85.913 78.9503 85.4542 78.8537 84.9087 78.8537H83.7326V84.419ZM90.6179 86V77.2727H94.1122C94.7543 77.2727 95.2898 77.3679 95.7188 77.5582C96.1477 77.7486 96.4702 78.0128 96.6861 78.3509C96.902 78.6861 97.0099 79.0724 97.0099 79.5099C97.0099 79.8509 96.9418 80.1506 96.8054 80.4091C96.669 80.6648 96.4815 80.875 96.2429 81.0398C96.0071 81.2017 95.7372 81.3168 95.4332 81.3849V81.4702C95.7656 81.4844 96.0767 81.5781 96.3665 81.7514C96.6591 81.9247 96.8963 82.1676 97.0781 82.4801C97.2599 82.7898 97.3509 83.1591 97.3509 83.5881C97.3509 84.0511 97.2358 84.4645 97.0057 84.8281C96.7784 85.1889 96.4418 85.4744 95.9957 85.6847C95.5497 85.8949 95 86 94.3466 86H90.6179ZM92.4631 84.4915H93.9673C94.4815 84.4915 94.8565 84.3935 95.0923 84.1974C95.3281 83.9986 95.446 83.7344 95.446 83.4048C95.446 83.1634 95.3878 82.9503 95.2713 82.7656C95.1548 82.581 94.9886 82.4361 94.7727 82.331C94.5597 82.2259 94.3054 82.1733 94.0099 82.1733H92.4631V84.4915ZM92.4631 80.9247H93.831C94.0838 80.9247 94.3082 80.8807 94.5043 80.7926C94.7031 80.7017 94.8594 80.5739 94.973 80.4091C95.0895 80.2443 95.1477 80.0469 95.1477 79.8168C95.1477 79.5014 95.0355 79.2472 94.8111 79.054C94.5895 78.8608 94.2741 78.7642 93.8651 78.7642H92.4631V80.9247Z" fill="#677278"/>
<line x1="22" y1="71" x2="98" y2="71" stroke="#677278" stroke-width="2"/>
<line x1="32" y1="1" x2="88" y2="0.999995" stroke="#677278" stroke-width="2"/>
<line x1="33" y1="4.37114e-08" x2="33" y2="70" stroke="#677278" stroke-width="2"/>
<line x1="89" y1="4.37114e-08" x2="89" y2="70" stroke="#677278" stroke-width="2"/>
<rect x="41" y="9" width="9" height="9" fill="#2ABFC1" stroke="#677278" stroke-width="2"/>
<rect x="56" y="9" width="9" height="9" fill="#2ABFC1" stroke="#677278" stroke-width="2"/>
<rect x="71" y="9" width="9" height="9" fill="#2ABFC1" stroke="#677278" stroke-width="2"/>
<rect x="41" y="25" width="9" height="9" fill="#2ABFC1" stroke="#677278" stroke-width="2"/>
<rect x="56" y="25" width="9" height="9" stroke="#677278" stroke-width="2"/>
<rect x="71" y="25" width="9" height="9" stroke="#677278" stroke-width="2"/>
<rect x="41" y="40" width="9" height="9" stroke="#677278" stroke-width="2"/>
<rect x="56" y="40" width="9" height="9" stroke="#677278" stroke-width="2"/>
<rect x="56" y="55" width="9" height="16" stroke="#677278" stroke-width="2"/>
<rect x="71" y="40" width="9" height="9" stroke="#677278" stroke-width="2"/>
<rect x="41" y="55" width="9" height="9" stroke="#677278" stroke-width="2"/>
<rect x="71" y="55" width="9" height="9" stroke="#677278" stroke-width="2"/>
</svg>
