<svg width="120" height="92" viewBox="0 0 120 92" fill="none" xmlns="http://www.w3.org/2000/svg">
<path d="M27.8422 77.2727V86H25.997V79.0241H25.9458L23.9473 80.277V78.6406L26.1078 77.2727H27.8422ZM34.0115 80.9162V82.3565H30.0314V80.9162H34.0115ZM35.5925 86V77.2727H39.0357C39.6948 77.2727 40.2573 77.3906 40.7232 77.6264C41.1919 77.8594 41.5485 78.1903 41.7928 78.6193C42.04 79.0455 42.1635 79.5469 42.1635 80.1236C42.1635 80.7031 42.0385 81.2017 41.7885 81.6193C41.5385 82.0341 41.1763 82.3523 40.7019 82.5739C40.2303 82.7955 39.6593 82.9062 38.9888 82.9062H36.6834V81.4233H38.6905C39.0428 81.4233 39.3354 81.375 39.5684 81.2784C39.8013 81.1818 39.9746 81.0369 40.0882 80.8438C40.2047 80.6506 40.263 80.4105 40.263 80.1236C40.263 79.8338 40.2047 79.5895 40.0882 79.3906C39.9746 79.1918 39.7999 79.0412 39.5641 78.9389C39.3311 78.8338 39.0371 78.7812 38.682 78.7812H37.4377V86H35.5925ZM40.3056 82.0284L42.4746 86H40.4377L38.3155 82.0284H40.3056ZM46.2853 86.1278C45.6234 86.1278 45.051 85.9872 44.568 85.706C44.0879 85.4219 43.7172 85.027 43.4558 84.5213C43.1944 84.0128 43.0637 83.4233 43.0637 82.7528C43.0637 82.0767 43.1944 81.4858 43.4558 80.9801C43.7172 80.4716 44.0879 80.0767 44.568 79.7955C45.051 79.5114 45.6234 79.3693 46.2853 79.3693C46.9473 79.3693 47.5183 79.5114 47.9984 79.7955C48.4814 80.0767 48.8535 80.4716 49.1149 80.9801C49.3762 81.4858 49.5069 82.0767 49.5069 82.7528C49.5069 83.4233 49.3762 84.0128 49.1149 84.5213C48.8535 85.027 48.4814 85.4219 47.9984 85.706C47.5183 85.9872 46.9473 86.1278 46.2853 86.1278ZM46.2939 84.7216C46.595 84.7216 46.8464 84.6364 47.0481 84.4659C47.2498 84.2926 47.4018 84.0568 47.5041 83.7585C47.6092 83.4602 47.6618 83.1207 47.6618 82.7401C47.6618 82.3594 47.6092 82.0199 47.5041 81.7216C47.4018 81.4233 47.2498 81.1875 47.0481 81.0142C46.8464 80.8409 46.595 80.7543 46.2939 80.7543C45.9899 80.7543 45.7342 80.8409 45.5268 81.0142C45.3223 81.1875 45.1674 81.4233 45.0623 81.7216C44.96 82.0199 44.9089 82.3594 44.9089 82.7401C44.9089 83.1207 44.96 83.4602 45.0623 83.7585C45.1674 84.0568 45.3223 84.2926 45.5268 84.4659C45.7342 84.6364 45.9899 84.7216 46.2939 84.7216ZM53.6447 86.1278C52.9828 86.1278 52.4103 85.9872 51.9274 85.706C51.4473 85.4219 51.0765 85.027 50.8152 84.5213C50.5538 84.0128 50.4231 83.4233 50.4231 82.7528C50.4231 82.0767 50.5538 81.4858 50.8152 80.9801C51.0765 80.4716 51.4473 80.0767 51.9274 79.7955C52.4103 79.5114 52.9828 79.3693 53.6447 79.3693C54.3066 79.3693 54.8777 79.5114 55.3578 79.7955C55.8407 80.0767 56.2129 80.4716 56.4743 80.9801C56.7356 81.4858 56.8663 82.0767 56.8663 82.7528C56.8663 83.4233 56.7356 84.0128 56.4743 84.5213C56.2129 85.027 55.8407 85.4219 55.3578 85.706C54.8777 85.9872 54.3066 86.1278 53.6447 86.1278ZM53.6532 84.7216C53.9544 84.7216 54.2058 84.6364 54.4075 84.4659C54.6092 84.2926 54.7612 84.0568 54.8635 83.7585C54.9686 83.4602 55.0211 83.1207 55.0211 82.7401C55.0211 82.3594 54.9686 82.0199 54.8635 81.7216C54.7612 81.4233 54.6092 81.1875 54.4075 81.0142C54.2058 80.8409 53.9544 80.7543 53.6532 80.7543C53.3493 80.7543 53.0936 80.8409 52.8862 81.0142C52.6816 81.1875 52.5268 81.4233 52.4217 81.7216C52.3194 82.0199 52.2683 82.3594 52.2683 82.7401C52.2683 83.1207 52.3194 83.4602 52.4217 83.7585C52.5268 84.0568 52.6816 84.2926 52.8862 84.4659C53.0936 84.6364 53.3493 84.7216 53.6532 84.7216ZM58.0467 86V79.4545H59.7768V80.6094H59.8535C59.9899 80.2259 60.2172 79.9233 60.5353 79.7017C60.8535 79.4801 61.2342 79.3693 61.6774 79.3693C62.1262 79.3693 62.5083 79.4815 62.8237 79.706C63.139 79.9276 63.3493 80.2287 63.4544 80.6094H63.5226C63.6561 80.2344 63.8975 79.9347 64.247 79.7102C64.5993 79.483 65.0154 79.3693 65.4956 79.3693C66.1064 79.3693 66.6021 79.5639 66.9828 79.9531C67.3663 80.3395 67.5581 80.8878 67.5581 81.598V86H65.747V81.956C65.747 81.5923 65.6504 81.3196 65.4572 81.1378C65.264 80.956 65.0226 80.8651 64.7328 80.8651C64.4032 80.8651 64.1461 80.9702 63.9615 81.1804C63.7768 81.3878 63.6845 81.6619 63.6845 82.0028V86H61.9245V81.9176C61.9245 81.5966 61.8322 81.3409 61.6475 81.1506C61.4657 80.9602 61.2257 80.8651 60.9274 80.8651C60.7257 80.8651 60.5439 80.9162 60.3819 81.0185C60.2228 81.1179 60.0964 81.2585 60.0027 81.4403C59.9089 81.6193 59.862 81.8295 59.862 82.071V86H58.0467ZM71.8034 86V77.2727H73.6486V80.8736H77.3944V77.2727H79.2353V86H77.3944V82.3949H73.6486V86H71.8034ZM83.8503 86H80.7566V77.2727H83.8759C84.7537 77.2727 85.5094 77.4474 86.1429 77.7969C86.7765 78.1435 87.2637 78.642 87.6046 79.2926C87.9483 79.9432 88.1202 80.7216 88.1202 81.6278C88.1202 82.5369 87.9483 83.3182 87.6046 83.9716C87.2637 84.625 86.7736 85.1264 86.1344 85.4759C85.498 85.8253 84.7367 86 83.8503 86ZM82.6017 84.419H83.7736C84.3191 84.419 84.7779 84.3224 85.15 84.1293C85.525 83.9332 85.8063 83.6307 85.9938 83.2216C86.1841 82.8097 86.2793 82.2784 86.2793 81.6278C86.2793 80.983 86.1841 80.456 85.9938 80.0469C85.8063 79.6378 85.5265 79.3366 85.1543 79.1435C84.7821 78.9503 84.3233 78.8537 83.7779 78.8537H82.6017V84.419ZM89.487 86V77.2727H92.9814C93.6234 77.2727 94.1589 77.3679 94.5879 77.5582C95.0169 77.7486 95.3393 78.0128 95.5552 78.3509C95.7711 78.6861 95.8791 79.0724 95.8791 79.5099C95.8791 79.8509 95.8109 80.1506 95.6745 80.4091C95.5382 80.6648 95.3507 80.875 95.112 81.0398C94.8762 81.2017 94.6064 81.3168 94.3024 81.3849V81.4702C94.6348 81.4844 94.9458 81.5781 95.2356 81.7514C95.5282 81.9247 95.7654 82.1676 95.9473 82.4801C96.1291 82.7898 96.22 83.1591 96.22 83.5881C96.22 84.0511 96.1049 84.4645 95.8748 84.8281C95.6475 85.1889 95.3109 85.4744 94.8649 85.6847C94.4189 85.8949 93.8691 86 93.2157 86H89.487ZM91.3322 84.4915H92.8365C93.3507 84.4915 93.7257 84.3935 93.9615 84.1974C94.1973 83.9986 94.3152 83.7344 94.3152 83.4048C94.3152 83.1634 94.2569 82.9503 94.1404 82.7656C94.024 82.581 93.8578 82.4361 93.6419 82.331C93.4288 82.2259 93.1745 82.1733 92.8791 82.1733H91.3322V84.4915ZM91.3322 80.9247H92.7001C92.9529 80.9247 93.1774 80.8807 93.3734 80.7926C93.5723 80.7017 93.7285 80.5739 93.8422 80.4091C93.9586 80.2443 94.0169 80.0469 94.0169 79.8168C94.0169 79.5014 93.9047 79.2472 93.6802 79.054C93.4586 78.8608 93.1433 78.7642 92.7342 78.7642H91.3322V80.9247Z" fill="#677278"/>
<line x1="21" y1="71" x2="97" y2="71" stroke="#677278" stroke-width="2"/>
<line x1="31" y1="1" x2="87" y2="0.999995" stroke="#677278" stroke-width="2"/>
<line x1="32" y1="4.37114e-08" x2="32" y2="70" stroke="#677278" stroke-width="2"/>
<line x1="88" y1="4.37114e-08" x2="88" y2="70" stroke="#677278" stroke-width="2"/>
<rect x="40" y="9" width="9" height="9" fill="#2ABFC1" stroke="#677278" stroke-width="2"/>
<rect x="55" y="9" width="9" height="9" stroke="#677278" stroke-width="2"/>
<rect x="70" y="9" width="9" height="9" stroke="#677278" stroke-width="2"/>
<rect x="40" y="25" width="9" height="9" stroke="#677278" stroke-width="2"/>
<rect x="55" y="25" width="9" height="9" stroke="#677278" stroke-width="2"/>
<rect x="70" y="25" width="9" height="9" stroke="#677278" stroke-width="2"/>
<rect x="40" y="40" width="9" height="9" stroke="#677278" stroke-width="2"/>
<rect x="55" y="40" width="9" height="9" stroke="#677278" stroke-width="2"/>
<rect x="55" y="55" width="9" height="16" stroke="#677278" stroke-width="2"/>
<rect x="70" y="40" width="9" height="9" stroke="#677278" stroke-width="2"/>
<rect x="40" y="55" width="9" height="9" stroke="#677278" stroke-width="2"/>
<rect x="70" y="55" width="9" height="9" stroke="#677278" stroke-width="2"/>
</svg>
