<svg width="120" height="92" viewBox="0 0 120 92" fill="none" xmlns="http://www.w3.org/2000/svg">
<path d="M17.7566 86V77.2727H19.6017V80.8736H23.3475V77.2727H25.1884V86H23.3475V82.3949H19.6017V86H17.7566ZM29.8034 86H26.7097V77.2727H29.829C30.7069 77.2727 31.4625 77.4474 32.0961 77.7969C32.7296 78.1435 33.2168 78.642 33.5577 79.2926C33.9015 79.9432 34.0733 80.7216 34.0733 81.6278C34.0733 82.5369 33.9015 83.3182 33.5577 83.9716C33.2168 84.625 32.7267 85.1264 32.0875 85.4759C31.4512 85.8253 30.6898 86 29.8034 86ZM28.5549 84.419H29.7267C30.2722 84.419 30.731 84.3224 31.1032 84.1293C31.4782 83.9332 31.7594 83.6307 31.9469 83.2216C32.1373 82.8097 32.2324 82.2784 32.2324 81.6278C32.2324 80.983 32.1373 80.456 31.9469 80.0469C31.7594 79.6378 31.4796 79.3366 31.1074 79.1435C30.7353 78.9503 30.2765 78.8537 29.731 78.8537H28.5549V84.419ZM35.4402 86V77.2727H38.9345C39.5765 77.2727 40.112 77.3679 40.541 77.5582C40.97 77.7486 41.2924 78.0128 41.5083 78.3509C41.7243 78.6861 41.8322 79.0724 41.8322 79.5099C41.8322 79.8509 41.764 80.1506 41.6277 80.4091C41.4913 80.6648 41.3038 80.875 41.0652 81.0398C40.8294 81.2017 40.5595 81.3168 40.2555 81.3849V81.4702C40.5879 81.4844 40.899 81.5781 41.1887 81.7514C41.4814 81.9247 41.7186 82.1676 41.9004 82.4801C42.0822 82.7898 42.1731 83.1591 42.1731 83.5881C42.1731 84.0511 42.0581 84.4645 41.8279 84.8281C41.6007 85.1889 41.264 85.4744 40.818 85.6847C40.372 85.8949 39.8223 86 39.1689 86H35.4402ZM37.2853 84.4915H38.7896C39.3038 84.4915 39.6788 84.3935 39.9146 84.1974C40.1504 83.9986 40.2683 83.7344 40.2683 83.4048C40.2683 83.1634 40.21 82.9503 40.0936 82.7656C39.9771 82.581 39.8109 82.4361 39.595 82.331C39.3819 82.2259 39.1277 82.1733 38.8322 82.1733H37.2853V84.4915ZM37.2853 80.9247H38.6532C38.9061 80.9247 39.1305 80.8807 39.3265 80.7926C39.5254 80.7017 39.6816 80.5739 39.7953 80.4091C39.9118 80.2443 39.97 80.0469 39.97 79.8168C39.97 79.5014 39.8578 79.2472 39.6333 79.054C39.4118 78.8608 39.0964 78.7642 38.6873 78.7642H37.2853V80.9247ZM46.1511 86V77.2727H52.0318V78.794H47.9963V80.8736H51.7292V82.3949H47.9963V84.4787H52.0488V86H46.1511ZM54.9817 79.4545L56.1834 81.7429L57.415 79.4545H59.2772L57.3809 82.7273L59.3283 86H57.4746L56.1834 83.7372L54.9135 86H53.0385L54.9817 82.7273L53.1067 79.4545H54.9817ZM63.1039 86.1278C62.4306 86.1278 61.851 85.9915 61.3652 85.7188C60.8823 85.4432 60.5101 85.054 60.2488 84.5511C59.9874 84.0455 59.8567 83.4474 59.8567 82.7571C59.8567 82.0838 59.9874 81.4929 60.2488 80.9844C60.5101 80.4759 60.878 80.0795 61.3525 79.7955C61.8297 79.5114 62.3894 79.3693 63.0314 79.3693C63.4632 79.3693 63.8652 79.4389 64.2374 79.5781C64.6124 79.7145 64.9391 79.9205 65.2175 80.196C65.4988 80.4716 65.7175 80.8182 65.8738 81.2358C66.03 81.6506 66.1081 82.1364 66.1081 82.6932V83.1918H60.5811V82.0668H64.3993C64.3993 81.8054 64.3425 81.5739 64.2289 81.3722C64.1152 81.1705 63.9576 81.0128 63.7559 80.8991C63.557 80.7827 63.3255 80.7244 63.0613 80.7244C62.7857 80.7244 62.5414 80.7884 62.3283 80.9162C62.1181 81.0412 61.9533 81.2102 61.834 81.4233C61.7147 81.6335 61.6536 81.8679 61.6507 82.1264V83.196C61.6507 83.5199 61.7104 83.7997 61.8297 84.0355C61.9519 84.2713 62.1238 84.4531 62.3453 84.581C62.5669 84.7088 62.8297 84.7727 63.1337 84.7727C63.3354 84.7727 63.5201 84.7443 63.6877 84.6875C63.8553 84.6307 63.9988 84.5455 64.1181 84.4318C64.2374 84.3182 64.3283 84.179 64.3908 84.0142L66.0698 84.125C65.9846 84.5284 65.8098 84.8807 65.5456 85.1818C65.2843 85.4801 64.9462 85.7131 64.5314 85.8807C64.1195 86.0455 63.6436 86.1278 63.1039 86.1278ZM70.2502 86.1278C69.5797 86.1278 69.003 85.9858 68.5201 85.7017C68.04 85.4148 67.6706 85.017 67.4121 84.5085C67.1564 84 67.0286 83.4148 67.0286 82.7528C67.0286 82.0824 67.1578 81.4943 67.4164 80.9886C67.6777 80.4801 68.0485 80.0838 68.5286 79.7997C69.0087 79.5128 69.5797 79.3693 70.2417 79.3693C70.8127 79.3693 71.3127 79.473 71.7417 79.6804C72.1706 79.8878 72.5101 80.179 72.7601 80.554C73.0101 80.929 73.1479 81.3693 73.1735 81.875H71.4604C71.4121 81.5483 71.2843 81.2855 71.0769 81.0866C70.8723 80.8849 70.6039 80.7841 70.2715 80.7841C69.9902 80.7841 69.7445 80.8608 69.5343 81.0142C69.3269 81.1648 69.165 81.3849 69.0485 81.6747C68.932 81.9645 68.8738 82.3153 68.8738 82.7273C68.8738 83.1449 68.9306 83.5 69.0442 83.7926C69.1607 84.0852 69.324 84.3082 69.5343 84.4616C69.7445 84.6151 69.9902 84.6918 70.2715 84.6918C70.4789 84.6918 70.665 84.6491 70.8297 84.5639C70.9973 84.4787 71.1351 84.3551 71.2431 84.1932C71.3539 84.0284 71.4263 83.831 71.4604 83.6009H73.1735C73.1451 84.1009 73.0087 84.5412 72.7644 84.9219C72.5229 85.2997 72.1891 85.5952 71.763 85.8082C71.3368 86.0213 70.8326 86.1278 70.2502 86.1278ZM78.5332 83.2131V79.4545H80.3485V86H78.6056V84.8111H78.5375C78.3897 85.1946 78.144 85.5028 77.8002 85.7358C77.4593 85.9687 77.0431 86.0852 76.5517 86.0852C76.1142 86.0852 75.7292 85.9858 75.3968 85.7869C75.0645 85.5881 74.8045 85.3054 74.617 84.9389C74.4324 84.5724 74.3386 84.1335 74.3358 83.6222V79.4545H76.1511V83.2983C76.1539 83.6847 76.2576 83.9901 76.4622 84.2145C76.6667 84.4389 76.9409 84.5511 77.2846 84.5511C77.5034 84.5511 77.7079 84.5014 77.8983 84.402C78.0886 84.2997 78.242 84.1491 78.3585 83.9503C78.4778 83.7514 78.536 83.5057 78.5332 83.2131ZM85.2821 79.4545V80.8182H81.3404V79.4545H85.2821ZM82.2353 77.8864H84.0506V83.9886C84.0506 84.1562 84.0762 84.2869 84.1273 84.3807C84.1784 84.4716 84.2495 84.5355 84.3404 84.5724C84.4341 84.6094 84.5421 84.6278 84.6642 84.6278C84.7495 84.6278 84.8347 84.6207 84.9199 84.6065C85.0051 84.5895 85.0705 84.5767 85.1159 84.5682L85.4015 85.919C85.3105 85.9474 85.1827 85.9801 85.0179 86.017C84.8532 86.0568 84.6529 86.081 84.4171 86.0895C83.9796 86.1065 83.5961 86.0483 83.2665 85.9148C82.9398 85.7812 82.6855 85.5739 82.5037 85.2926C82.3219 85.0114 82.2324 84.6562 82.2353 84.2273V77.8864ZM86.4647 86V79.4545H88.28V86H86.4647ZM87.3766 78.6108C87.1067 78.6108 86.8752 78.5213 86.682 78.3423C86.4917 78.1605 86.3965 77.9432 86.3965 77.6903C86.3965 77.4403 86.4917 77.2259 86.682 77.0469C86.8752 76.8651 87.1067 76.7741 87.3766 76.7741C87.6465 76.7741 87.8766 76.8651 88.0669 77.0469C88.2601 77.2259 88.3567 77.4403 88.3567 77.6903C88.3567 77.9432 88.2601 78.1605 88.0669 78.3423C87.8766 78.5213 87.6465 78.6108 87.3766 78.6108ZM95.8365 79.4545L93.5481 86H91.5027L89.2143 79.4545H91.1319L92.4913 84.1378H92.5595L93.9146 79.4545H95.8365ZM99.5375 86.1278C98.8642 86.1278 98.2846 85.9915 97.7988 85.7188C97.3159 85.4432 96.9437 85.054 96.6824 84.5511C96.421 84.0455 96.2903 83.4474 96.2903 82.7571C96.2903 82.0838 96.421 81.4929 96.6824 80.9844C96.9437 80.4759 97.3116 80.0795 97.786 79.7955C98.2633 79.5114 98.823 79.3693 99.465 79.3693C99.8968 79.3693 100.299 79.4389 100.671 79.5781C101.046 79.7145 101.373 79.9205 101.651 80.196C101.932 80.4716 102.151 80.8182 102.307 81.2358C102.464 81.6506 102.542 82.1364 102.542 82.6932V83.1918H97.0147V82.0668H100.833C100.833 81.8054 100.776 81.5739 100.662 81.3722C100.549 81.1705 100.391 81.0128 100.189 80.8991C99.9906 80.7827 99.7591 80.7244 99.4949 80.7244C99.2193 80.7244 98.975 80.7884 98.7619 80.9162C98.5517 81.0412 98.3869 81.2102 98.2676 81.4233C98.1483 81.6335 98.0872 81.8679 98.0843 82.1264V83.196C98.0843 83.5199 98.144 83.7997 98.2633 84.0355C98.3855 84.2713 98.5574 84.4531 98.7789 84.581C99.0005 84.7088 99.2633 84.7727 99.5673 84.7727C99.769 84.7727 99.9537 84.7443 100.121 84.6875C100.289 84.6307 100.432 84.5455 100.552 84.4318C100.671 84.3182 100.762 84.179 100.824 84.0142L102.503 84.125C102.418 84.5284 102.243 84.8807 101.979 85.1818C101.718 85.4801 101.38 85.7131 100.965 85.8807C100.553 86.0455 100.077 86.1278 99.5375 86.1278Z" fill="#677278"/>
<line x1="22" y1="71" x2="98" y2="71" stroke="#677278" stroke-width="2"/>
<line x1="32" y1="1" x2="88" y2="0.999995" stroke="#677278" stroke-width="2"/>
<line x1="33" y1="4.37114e-08" x2="33" y2="70" stroke="#677278" stroke-width="2"/>
<line x1="89" y1="4.37114e-08" x2="89" y2="70" stroke="#677278" stroke-width="2"/>
<rect x="41" y="9" width="9" height="9" fill="#FFC700" stroke="#677278" stroke-width="2"/>
<rect x="56" y="9" width="9" height="9" fill="#FFC700" stroke="#677278" stroke-width="2"/>
<rect x="71" y="9" width="9" height="9" fill="#FFC700" stroke="#677278" stroke-width="2"/>
<rect x="41" y="25" width="9" height="9" fill="#FFC700" stroke="#677278" stroke-width="2"/>
<rect x="56" y="25" width="9" height="9" fill="#FFC700" stroke="#677278" stroke-width="2"/>
<rect x="71" y="25" width="9" height="9" fill="#FFC700" stroke="#677278" stroke-width="2"/>
<rect x="41" y="40" width="9" height="9" stroke="#677278" stroke-width="2"/>
<rect x="56" y="40" width="9" height="9" stroke="#677278" stroke-width="2"/>
<rect x="56" y="55" width="9" height="16" stroke="#677278" stroke-width="2"/>
<rect x="71" y="40" width="9" height="9" stroke="#677278" stroke-width="2"/>
<rect x="41" y="55" width="9" height="9" stroke="#677278" stroke-width="2"/>
<rect x="71" y="55" width="9" height="9" stroke="#677278" stroke-width="2"/>
</svg>
