<svg width="120" height="92" viewBox="0 0 120 92" fill="none" xmlns="http://www.w3.org/2000/svg">
<path d="M26.3011 86.1193C25.6989 86.1193 25.1619 86.0085 24.6903 85.7869C24.2216 85.5653 23.8494 85.2599 23.5739 84.8707C23.2983 84.4815 23.1548 84.0355 23.1435 83.5327H24.9332C24.9531 83.8707 25.0952 84.1449 25.3594 84.3551C25.6236 84.5653 25.9375 84.6705 26.3011 84.6705C26.5909 84.6705 26.8466 84.6065 27.0682 84.4787C27.2926 84.348 27.4673 84.1676 27.5923 83.9375C27.7202 83.7045 27.7841 83.4375 27.7841 83.1364C27.7841 82.8295 27.7188 82.5597 27.5881 82.3267C27.4602 82.0937 27.2827 81.9119 27.0554 81.7812C26.8281 81.6506 26.5682 81.5838 26.2756 81.581C26.0199 81.581 25.7713 81.6335 25.5298 81.7386C25.2912 81.8437 25.1051 81.9872 24.9716 82.169L23.331 81.875L23.7443 77.2727H29.0795V78.7812H25.2656L25.0398 80.9673H25.0909C25.2443 80.7514 25.4759 80.5724 25.7855 80.4304C26.0952 80.2884 26.4418 80.2173 26.8253 80.2173C27.3509 80.2173 27.8196 80.3409 28.2315 80.5881C28.6435 80.8352 28.9688 81.1747 29.2074 81.6065C29.446 82.0355 29.5639 82.5298 29.5611 83.0895C29.5639 83.6776 29.4276 84.2003 29.152 84.6577C28.8793 85.1122 28.4972 85.4702 28.0057 85.7315C27.517 85.9901 26.9489 86.1193 26.3011 86.1193ZM34.9432 80.9162V82.3565H30.9631V80.9162H34.9432ZM36.5241 86V77.2727H39.9673C40.6264 77.2727 41.1889 77.3906 41.6548 77.6264C42.1236 77.8594 42.4801 78.1903 42.7244 78.6193C42.9716 79.0455 43.0952 79.5469 43.0952 80.1236C43.0952 80.7031 42.9702 81.2017 42.7202 81.6193C42.4702 82.0341 42.108 82.3523 41.6335 82.5739C41.1619 82.7955 40.5909 82.9062 39.9205 82.9062H37.6151V81.4233H39.6222C39.9744 81.4233 40.267 81.375 40.5 81.2784C40.733 81.1818 40.9063 81.0369 41.0199 80.8438C41.1364 80.6506 41.1946 80.4105 41.1946 80.1236C41.1946 79.8338 41.1364 79.5895 41.0199 79.3906C40.9063 79.1918 40.7315 79.0412 40.4957 78.9389C40.2628 78.8338 39.9688 78.7812 39.6136 78.7812H38.3693V86H36.5241ZM41.2372 82.0284L43.4062 86H41.3693L39.2472 82.0284H41.2372ZM47.217 86.1278C46.555 86.1278 45.9826 85.9872 45.4996 85.706C45.0195 85.4219 44.6488 85.027 44.3874 84.5213C44.1261 84.0128 43.9954 83.4233 43.9954 82.7528C43.9954 82.0767 44.1261 81.4858 44.3874 80.9801C44.6488 80.4716 45.0195 80.0767 45.4996 79.7955C45.9826 79.5114 46.555 79.3693 47.217 79.3693C47.8789 79.3693 48.4499 79.5114 48.93 79.7955C49.413 80.0767 49.7852 80.4716 50.0465 80.9801C50.3079 81.4858 50.4386 82.0767 50.4386 82.7528C50.4386 83.4233 50.3079 84.0128 50.0465 84.5213C49.7852 85.027 49.413 85.4219 48.93 85.706C48.4499 85.9872 47.8789 86.1278 47.217 86.1278ZM47.2255 84.7216C47.5266 84.7216 47.7781 84.6364 47.9798 84.4659C48.1815 84.2926 48.3335 84.0568 48.4357 83.7585C48.5408 83.4602 48.5934 83.1207 48.5934 82.7401C48.5934 82.3594 48.5408 82.0199 48.4357 81.7216C48.3335 81.4233 48.1815 81.1875 47.9798 81.0142C47.7781 80.8409 47.5266 80.7543 47.2255 80.7543C46.9215 80.7543 46.6658 80.8409 46.4585 81.0142C46.2539 81.1875 46.0991 81.4233 45.994 81.7216C45.8917 82.0199 45.8406 82.3594 45.8406 82.7401C45.8406 83.1207 45.8917 83.4602 45.994 83.7585C46.0991 84.0568 46.2539 84.2926 46.4585 84.4659C46.6658 84.6364 46.9215 84.7216 47.2255 84.7216ZM54.5763 86.1278C53.9144 86.1278 53.342 85.9872 52.859 85.706C52.3789 85.4219 52.0082 85.027 51.7468 84.5213C51.4854 84.0128 51.3548 83.4233 51.3548 82.7528C51.3548 82.0767 51.4854 81.4858 51.7468 80.9801C52.0082 80.4716 52.3789 80.0767 52.859 79.7955C53.342 79.5114 53.9144 79.3693 54.5763 79.3693C55.2383 79.3693 55.8093 79.5114 56.2894 79.7955C56.7724 80.0767 57.1445 80.4716 57.4059 80.9801C57.6673 81.4858 57.7979 82.0767 57.7979 82.7528C57.7979 83.4233 57.6673 84.0128 57.4059 84.5213C57.1445 85.027 56.7724 85.4219 56.2894 85.706C55.8093 85.9872 55.2383 86.1278 54.5763 86.1278ZM54.5849 84.7216C54.886 84.7216 55.1374 84.6364 55.3391 84.4659C55.5408 84.2926 55.6928 84.0568 55.7951 83.7585C55.9002 83.4602 55.9528 83.1207 55.9528 82.7401C55.9528 82.3594 55.9002 82.0199 55.7951 81.7216C55.6928 81.4233 55.5408 81.1875 55.3391 81.0142C55.1374 80.8409 54.886 80.7543 54.5849 80.7543C54.2809 80.7543 54.0252 80.8409 53.8178 81.0142C53.6133 81.1875 53.4585 81.4233 53.3533 81.7216C53.2511 82.0199 53.1999 82.3594 53.1999 82.7401C53.1999 83.1207 53.2511 83.4602 53.3533 83.7585C53.4585 84.0568 53.6133 84.2926 53.8178 84.4659C54.0252 84.6364 54.2809 84.7216 54.5849 84.7216ZM58.9783 86V79.4545H60.7085V80.6094H60.7852C60.9215 80.2259 61.1488 79.9233 61.467 79.7017C61.7852 79.4801 62.1658 79.3693 62.609 79.3693C63.0579 79.3693 63.44 79.4815 63.7553 79.706C64.0707 79.9276 64.2809 80.2287 64.386 80.6094H64.4542C64.5877 80.2344 64.8292 79.9347 65.1786 79.7102C65.5309 79.483 65.9471 79.3693 66.4272 79.3693C67.038 79.3693 67.5337 79.5639 67.9144 79.9531C68.2979 80.3395 68.4897 80.8878 68.4897 81.598V86H66.6786V81.956C66.6786 81.5923 66.582 81.3196 66.3888 81.1378C66.1957 80.956 65.9542 80.8651 65.6644 80.8651C65.3349 80.8651 65.0778 80.9702 64.8931 81.1804C64.7085 81.3878 64.6161 81.6619 64.6161 82.0028V86H62.8562V81.9176C62.8562 81.5966 62.7638 81.3409 62.5792 81.1506C62.3974 80.9602 62.1573 80.8651 61.859 80.8651C61.6573 80.8651 61.4755 80.9162 61.3136 81.0185C61.1545 81.1179 61.0281 81.2585 60.9343 81.4403C60.8406 81.6193 60.7937 81.8295 60.7937 82.071V86H58.9783ZM72.7351 86V77.2727H74.5803V80.8736H78.326V77.2727H80.1669V86H78.326V82.3949H74.5803V86H72.7351ZM84.782 86H81.6882V77.2727H84.8075C85.6854 77.2727 86.4411 77.4474 87.0746 77.7969C87.7081 78.1435 88.1953 78.642 88.5362 79.2926C88.88 79.9432 89.0518 80.7216 89.0518 81.6278C89.0518 82.5369 88.88 83.3182 88.5362 83.9716C88.1953 84.625 87.7053 85.1264 87.0661 85.4759C86.4297 85.8253 85.6683 86 84.782 86ZM83.5334 84.419H84.7053C85.2507 84.419 85.7095 84.3224 86.0817 84.1293C86.4567 83.9332 86.7379 83.6307 86.9254 83.2216C87.1158 82.8097 87.2109 82.2784 87.2109 81.6278C87.2109 80.983 87.1158 80.456 86.9254 80.0469C86.7379 79.6378 86.4581 79.3366 86.0859 79.1435C85.7138 78.9503 85.255 78.8537 84.7095 78.8537H83.5334V84.419ZM90.4187 86V77.2727H93.913C94.555 77.2727 95.0906 77.3679 95.5195 77.5582C95.9485 77.7486 96.271 78.0128 96.4869 78.3509C96.7028 78.6861 96.8107 79.0724 96.8107 79.5099C96.8107 79.8509 96.7425 80.1506 96.6062 80.4091C96.4698 80.6648 96.2823 80.875 96.0437 81.0398C95.8079 81.2017 95.538 81.3168 95.234 81.3849V81.4702C95.5664 81.4844 95.8775 81.5781 96.1673 81.7514C96.4599 81.9247 96.6971 82.1676 96.8789 82.4801C97.0607 82.7898 97.1516 83.1591 97.1516 83.5881C97.1516 84.0511 97.0366 84.4645 96.8065 84.8281C96.5792 85.1889 96.2425 85.4744 95.7965 85.6847C95.3505 85.8949 94.8008 86 94.1474 86H90.4187ZM92.2638 84.4915H93.7681C94.2823 84.4915 94.6573 84.3935 94.8931 84.1974C95.1289 83.9986 95.2468 83.7344 95.2468 83.4048C95.2468 83.1634 95.1886 82.9503 95.0721 82.7656C94.9556 82.581 94.7894 82.4361 94.5735 82.331C94.3604 82.2259 94.1062 82.1733 93.8107 82.1733H92.2638V84.4915ZM92.2638 80.9247H93.6317C93.8846 80.9247 94.109 80.8807 94.305 80.7926C94.5039 80.7017 94.6602 80.5739 94.7738 80.4091C94.8903 80.2443 94.9485 80.0469 94.9485 79.8168C94.9485 79.5014 94.8363 79.2472 94.6119 79.054C94.3903 78.8608 94.0749 78.7642 93.6658 78.7642H92.2638V80.9247Z" fill="#677278"/>
<line x1="22" y1="71" x2="98" y2="71" stroke="#677278" stroke-width="2"/>
<line x1="32" y1="1" x2="88" y2="0.999995" stroke="#677278" stroke-width="2"/>
<line x1="33" y1="4.37114e-08" x2="33" y2="70" stroke="#677278" stroke-width="2"/>
<line x1="89" y1="4.37114e-08" x2="89" y2="70" stroke="#677278" stroke-width="2"/>
<rect x="41" y="9" width="9" height="9" fill="#2ABFC1" stroke="#677278" stroke-width="2"/>
<rect x="56" y="9" width="9" height="9" fill="#2ABFC1" stroke="#677278" stroke-width="2"/>
<rect x="71" y="9" width="9" height="9" fill="#2ABFC1" stroke="#677278" stroke-width="2"/>
<rect x="41" y="25" width="9" height="9" fill="#2ABFC1" stroke="#677278" stroke-width="2"/>
<rect x="56" y="25" width="9" height="9" fill="#2ABFC1" stroke="#677278" stroke-width="2"/>
<rect x="71" y="25" width="9" height="9" stroke="#677278" stroke-width="2"/>
<rect x="41" y="40" width="9" height="9" stroke="#677278" stroke-width="2"/>
<rect x="56" y="40" width="9" height="9" stroke="#677278" stroke-width="2"/>
<rect x="56" y="55" width="9" height="16" stroke="#677278" stroke-width="2"/>
<rect x="71" y="40" width="9" height="9" stroke="#677278" stroke-width="2"/>
<rect x="41" y="55" width="9" height="9" stroke="#677278" stroke-width="2"/>
<rect x="71" y="55" width="9" height="9" stroke="#677278" stroke-width="2"/>
</svg>
