<svg width="120" height="92" viewBox="0 0 120 92" fill="none" xmlns="http://www.w3.org/2000/svg">
<path d="M26.2516 86.1193C25.6152 86.1193 25.0485 86.0099 24.5513 85.7912C24.057 85.5696 23.6664 85.2656 23.3794 84.8793C23.0953 84.4901 22.949 84.0412 22.9405 83.5327H24.7985C24.8098 83.7457 24.8794 83.9332 25.0073 84.0952C25.138 84.2543 25.3113 84.3778 25.5272 84.4659C25.7431 84.554 25.986 84.598 26.2559 84.598C26.5371 84.598 26.7857 84.5483 27.0016 84.4489C27.2175 84.3494 27.3865 84.2116 27.5087 84.0355C27.6309 83.8594 27.6919 83.6562 27.6919 83.4261C27.6919 83.1932 27.6266 82.9872 27.4959 82.8082C27.3681 82.6264 27.1834 82.4844 26.9419 82.3821C26.7033 82.2798 26.4192 82.2287 26.0897 82.2287H25.2757V80.8736H26.0897C26.3681 80.8736 26.6138 80.8253 26.8269 80.7287C27.0428 80.6321 27.2104 80.4986 27.3297 80.3281C27.449 80.1548 27.5087 79.9531 27.5087 79.723C27.5087 79.5043 27.4561 79.3125 27.351 79.1477C27.2488 78.9801 27.1039 78.8494 26.9164 78.7557C26.7317 78.6619 26.5158 78.6151 26.2686 78.6151C26.0186 78.6151 25.79 78.6605 25.5826 78.7514C25.3752 78.8395 25.209 78.9659 25.084 79.1307C24.959 79.2955 24.8922 79.4886 24.8837 79.7102H23.1152C23.1238 79.2074 23.2672 78.7642 23.5456 78.3807C23.824 77.9972 24.199 77.6974 24.6706 77.4815C25.1451 77.2628 25.6806 77.1534 26.2772 77.1534C26.8794 77.1534 27.4064 77.2628 27.8581 77.4815C28.3098 77.7003 28.6607 77.9957 28.9107 78.3679C29.1635 78.7372 29.2885 79.152 29.2857 79.6122C29.2885 80.1009 29.1365 80.5085 28.8297 80.8352C28.5257 81.1619 28.1294 81.3693 27.6408 81.4574V81.5256C28.2828 81.608 28.7715 81.831 29.1067 82.1946C29.4448 82.5554 29.6124 83.0071 29.6096 83.5497C29.6124 84.0469 29.4689 84.4886 29.1792 84.875C28.8922 85.2614 28.4959 85.5653 27.9902 85.7869C27.4846 86.0085 26.905 86.1193 26.2516 86.1193ZM35.0311 80.9162V82.3565H31.051V80.9162H35.0311ZM36.612 86V77.2727H40.0552C40.7143 77.2727 41.2768 77.3906 41.7427 77.6264C42.2115 77.8594 42.568 78.1903 42.8123 78.6193C43.0595 79.0455 43.1831 79.5469 43.1831 80.1236C43.1831 80.7031 43.0581 81.2017 42.8081 81.6193C42.5581 82.0341 42.1958 82.3523 41.7214 82.5739C41.2498 82.7955 40.6788 82.9062 40.0083 82.9062H37.7029V81.4233H39.71C40.0623 81.4233 40.3549 81.375 40.5879 81.2784C40.8208 81.1818 40.9941 81.0369 41.1078 80.8438C41.2243 80.6506 41.2825 80.4105 41.2825 80.1236C41.2825 79.8338 41.2243 79.5895 41.1078 79.3906C40.9941 79.1918 40.8194 79.0412 40.5836 78.9389C40.3507 78.8338 40.0566 78.7812 39.7015 78.7812H38.4572V86H36.612ZM41.3251 82.0284L43.4941 86H41.4572L39.335 82.0284H41.3251ZM47.3049 86.1278C46.6429 86.1278 46.0705 85.9872 45.5875 85.706C45.1074 85.4219 44.7367 85.027 44.4753 84.5213C44.214 84.0128 44.0833 83.4233 44.0833 82.7528C44.0833 82.0767 44.214 81.4858 44.4753 80.9801C44.7367 80.4716 45.1074 80.0767 45.5875 79.7955C46.0705 79.5114 46.6429 79.3693 47.3049 79.3693C47.9668 79.3693 48.5378 79.5114 49.0179 79.7955C49.5009 80.0767 49.873 80.4716 50.1344 80.9801C50.3958 81.4858 50.5265 82.0767 50.5265 82.7528C50.5265 83.4233 50.3958 84.0128 50.1344 84.5213C49.873 85.027 49.5009 85.4219 49.0179 85.706C48.5378 85.9872 47.9668 86.1278 47.3049 86.1278ZM47.3134 84.7216C47.6145 84.7216 47.8659 84.6364 48.0676 84.4659C48.2694 84.2926 48.4213 84.0568 48.5236 83.7585C48.6287 83.4602 48.6813 83.1207 48.6813 82.7401C48.6813 82.3594 48.6287 82.0199 48.5236 81.7216C48.4213 81.4233 48.2694 81.1875 48.0676 81.0142C47.8659 80.8409 47.6145 80.7543 47.3134 80.7543C47.0094 80.7543 46.7537 80.8409 46.5463 81.0142C46.3418 81.1875 46.187 81.4233 46.0819 81.7216C45.9796 82.0199 45.9284 82.3594 45.9284 82.7401C45.9284 83.1207 45.9796 83.4602 46.0819 83.7585C46.187 84.0568 46.3418 84.2926 46.5463 84.4659C46.7537 84.6364 47.0094 84.7216 47.3134 84.7216ZM54.6642 86.1278C54.0023 86.1278 53.4299 85.9872 52.9469 85.706C52.4668 85.4219 52.0961 85.027 51.8347 84.5213C51.5733 84.0128 51.4426 83.4233 51.4426 82.7528C51.4426 82.0767 51.5733 81.4858 51.8347 80.9801C52.0961 80.4716 52.4668 80.0767 52.9469 79.7955C53.4299 79.5114 54.0023 79.3693 54.6642 79.3693C55.3262 79.3693 55.8972 79.5114 56.3773 79.7955C56.8603 80.0767 57.2324 80.4716 57.4938 80.9801C57.7551 81.4858 57.8858 82.0767 57.8858 82.7528C57.8858 83.4233 57.7551 84.0128 57.4938 84.5213C57.2324 85.027 56.8603 85.4219 56.3773 85.706C55.8972 85.9872 55.3262 86.1278 54.6642 86.1278ZM54.6728 84.7216C54.9739 84.7216 55.2253 84.6364 55.427 84.4659C55.6287 84.2926 55.7807 84.0568 55.883 83.7585C55.9881 83.4602 56.0407 83.1207 56.0407 82.7401C56.0407 82.3594 55.9881 82.0199 55.883 81.7216C55.7807 81.4233 55.6287 81.1875 55.427 81.0142C55.2253 80.8409 54.9739 80.7543 54.6728 80.7543C54.3688 80.7543 54.1131 80.8409 53.9057 81.0142C53.7012 81.1875 53.5463 81.4233 53.4412 81.7216C53.339 82.0199 53.2878 82.3594 53.2878 82.7401C53.2878 83.1207 53.339 83.4602 53.4412 83.7585C53.5463 84.0568 53.7012 84.2926 53.9057 84.4659C54.1131 84.6364 54.3688 84.7216 54.6728 84.7216ZM59.0662 86V79.4545H60.7963V80.6094H60.873C61.0094 80.2259 61.2367 79.9233 61.5549 79.7017C61.873 79.4801 62.2537 79.3693 62.6969 79.3693C63.1458 79.3693 63.5279 79.4815 63.8432 79.706C64.1586 79.9276 64.3688 80.2287 64.4739 80.6094H64.5421C64.6756 80.2344 64.9171 79.9347 65.2665 79.7102C65.6188 79.483 66.035 79.3693 66.5151 79.3693C67.1259 79.3693 67.6216 79.5639 68.0023 79.9531C68.3858 80.3395 68.5776 80.8878 68.5776 81.598V86H66.7665V81.956C66.7665 81.5923 66.6699 81.3196 66.4767 81.1378C66.2836 80.956 66.0421 80.8651 65.7523 80.8651C65.4228 80.8651 65.1657 80.9702 64.981 81.1804C64.7963 81.3878 64.704 81.6619 64.704 82.0028V86H62.9441V81.9176C62.9441 81.5966 62.8517 81.3409 62.6671 81.1506C62.4853 80.9602 62.2452 80.8651 61.9469 80.8651C61.7452 80.8651 61.5634 80.9162 61.4015 81.0185C61.2424 81.1179 61.1159 81.2585 61.0222 81.4403C60.9284 81.6193 60.8816 81.8295 60.8816 82.071V86H59.0662ZM72.823 86V77.2727H74.6681V80.8736H78.4139V77.2727H80.2548V86H78.4139V82.3949H74.6681V86H72.823ZM84.8699 86H81.7761V77.2727H84.8954C85.7733 77.2727 86.5289 77.4474 87.1625 77.7969C87.796 78.1435 88.2832 78.642 88.6241 79.2926C88.9679 79.9432 89.1397 80.7216 89.1397 81.6278C89.1397 82.5369 88.9679 83.3182 88.6241 83.9716C88.2832 84.625 87.7931 85.1264 87.1539 85.4759C86.5176 85.8253 85.7562 86 84.8699 86ZM83.6213 84.419H84.7931C85.3386 84.419 85.7974 84.3224 86.1696 84.1293C86.5446 83.9332 86.8258 83.6307 87.0133 83.2216C87.2037 82.8097 87.2988 82.2784 87.2988 81.6278C87.2988 80.983 87.2037 80.456 87.0133 80.0469C86.8258 79.6378 86.546 79.3366 86.1738 79.1435C85.8017 78.9503 85.3429 78.8537 84.7974 78.8537H83.6213V84.419ZM90.5066 86V77.2727H94.0009C94.6429 77.2727 95.1784 77.3679 95.6074 77.5582C96.0364 77.7486 96.3588 78.0128 96.5748 78.3509C96.7907 78.6861 96.8986 79.0724 96.8986 79.5099C96.8986 79.8509 96.8304 80.1506 96.6941 80.4091C96.5577 80.6648 96.3702 80.875 96.1316 81.0398C95.8958 81.2017 95.6259 81.3168 95.3219 81.3849V81.4702C95.6543 81.4844 95.9654 81.5781 96.2551 81.7514C96.5478 81.9247 96.785 82.1676 96.9668 82.4801C97.1486 82.7898 97.2395 83.1591 97.2395 83.5881C97.2395 84.0511 97.1245 84.4645 96.8944 84.8281C96.6671 85.1889 96.3304 85.4744 95.8844 85.6847C95.4384 85.8949 94.8887 86 94.2353 86H90.5066ZM92.3517 84.4915H93.856C94.3702 84.4915 94.7452 84.3935 94.981 84.1974C95.2168 83.9986 95.3347 83.7344 95.3347 83.4048C95.3347 83.1634 95.2765 82.9503 95.16 82.7656C95.0435 82.581 94.8773 82.4361 94.6614 82.331C94.4483 82.2259 94.1941 82.1733 93.8986 82.1733H92.3517V84.4915ZM92.3517 80.9247H93.7196C93.9725 80.9247 94.1969 80.8807 94.3929 80.7926C94.5918 80.7017 94.748 80.5739 94.8617 80.4091C94.9782 80.2443 95.0364 80.0469 95.0364 79.8168C95.0364 79.5014 94.9242 79.2472 94.6998 79.054C94.4782 78.8608 94.1628 78.7642 93.7537 78.7642H92.3517V80.9247Z" fill="#677278"/>
<line x1="22" y1="71" x2="98" y2="71" stroke="#677278" stroke-width="2"/>
<line x1="32" y1="1" x2="88" y2="0.999995" stroke="#677278" stroke-width="2"/>
<line x1="33" y1="4.37114e-08" x2="33" y2="70" stroke="#677278" stroke-width="2"/>
<line x1="89" y1="4.37114e-08" x2="89" y2="70" stroke="#677278" stroke-width="2"/>
<rect x="41" y="9" width="9" height="9" fill="#2ABFC1" stroke="#677278" stroke-width="2"/>
<rect x="56" y="9" width="9" height="9" fill="#2ABFC1" stroke="#677278" stroke-width="2"/>
<rect x="71" y="9" width="9" height="9" fill="#2ABFC1" stroke="#677278" stroke-width="2"/>
<rect x="41" y="25" width="9" height="9" stroke="#677278" stroke-width="2"/>
<rect x="56" y="25" width="9" height="9" stroke="#677278" stroke-width="2"/>
<rect x="71" y="25" width="9" height="9" stroke="#677278" stroke-width="2"/>
<rect x="41" y="40" width="9" height="9" stroke="#677278" stroke-width="2"/>
<rect x="56" y="40" width="9" height="9" stroke="#677278" stroke-width="2"/>
<rect x="56" y="55" width="9" height="16" stroke="#677278" stroke-width="2"/>
<rect x="71" y="40" width="9" height="9" stroke="#677278" stroke-width="2"/>
<rect x="41" y="55" width="9" height="9" stroke="#677278" stroke-width="2"/>
<rect x="71" y="55" width="9" height="9" stroke="#677278" stroke-width="2"/>
</svg>
