<svg width="120" height="92" viewBox="0 0 120 92" fill="none" xmlns="http://www.w3.org/2000/svg">
<path d="M23.2015 86V84.6705L26.3081 81.794C26.5723 81.5384 26.7939 81.3082 26.9728 81.1037C27.1547 80.8991 27.2924 80.6989 27.3862 80.5028C27.4799 80.304 27.5268 80.0895 27.5268 79.8594C27.5268 79.6037 27.4686 79.3835 27.3521 79.1989C27.2356 79.0114 27.0765 78.8679 26.8748 78.7685C26.6731 78.6662 26.4444 78.6151 26.1887 78.6151C25.9217 78.6151 25.6887 78.669 25.4899 78.777C25.291 78.8849 25.1376 79.0398 25.0297 79.2415C24.9217 79.4432 24.8677 79.6832 24.8677 79.9616H23.1163C23.1163 79.3906 23.2456 78.8949 23.5041 78.4744C23.7626 78.054 24.1248 77.7287 24.5907 77.4986C25.0566 77.2685 25.5936 77.1534 26.2015 77.1534C26.8265 77.1534 27.3706 77.2642 27.8336 77.4858C28.2995 77.7045 28.6618 78.0085 28.9203 78.3977C29.1788 78.7869 29.3081 79.233 29.3081 79.7358C29.3081 80.0653 29.2427 80.3906 29.112 80.7116C28.9842 81.0327 28.7555 81.3892 28.426 81.7812C28.0964 82.1705 27.6319 82.6378 27.0325 83.1832L25.7583 84.4318V84.4915H29.4231V86H23.2015ZM34.8553 80.9162V82.3565H30.8752V80.9162H34.8553ZM36.4363 86V77.2727H39.8794C40.5385 77.2727 41.101 77.3906 41.5669 77.6264C42.0357 77.8594 42.3922 78.1903 42.6365 78.6193C42.8837 79.0455 43.0073 79.5469 43.0073 80.1236C43.0073 80.7031 42.8823 81.2017 42.6323 81.6193C42.3823 82.0341 42.0201 82.3523 41.5456 82.5739C41.074 82.7955 40.503 82.9062 39.8326 82.9062H37.5272V81.4233H39.5343C39.8865 81.4233 40.1792 81.375 40.4121 81.2784C40.6451 81.1818 40.8184 81.0369 40.932 80.8438C41.0485 80.6506 41.1067 80.4105 41.1067 80.1236C41.1067 79.8338 41.0485 79.5895 40.932 79.3906C40.8184 79.1918 40.6436 79.0412 40.4078 78.9389C40.1749 78.8338 39.8809 78.7812 39.5257 78.7812H38.2814V86H36.4363ZM41.1493 82.0284L43.3184 86H41.2814L39.1593 82.0284H41.1493ZM47.1291 86.1278C46.4672 86.1278 45.8947 85.9872 45.4118 85.706C44.9316 85.4219 44.5609 85.027 44.2995 84.5213C44.0382 84.0128 43.9075 83.4233 43.9075 82.7528C43.9075 82.0767 44.0382 81.4858 44.2995 80.9801C44.5609 80.4716 44.9316 80.0767 45.4118 79.7955C45.8947 79.5114 46.4672 79.3693 47.1291 79.3693C47.791 79.3693 48.362 79.5114 48.8422 79.7955C49.3251 80.0767 49.6973 80.4716 49.9586 80.9801C50.22 81.4858 50.3507 82.0767 50.3507 82.7528C50.3507 83.4233 50.22 84.0128 49.9586 84.5213C49.6973 85.027 49.3251 85.4219 48.8422 85.706C48.362 85.9872 47.791 86.1278 47.1291 86.1278ZM47.1376 84.7216C47.4387 84.7216 47.6902 84.6364 47.8919 84.4659C48.0936 84.2926 48.2456 84.0568 48.3478 83.7585C48.4529 83.4602 48.5055 83.1207 48.5055 82.7401C48.5055 82.3594 48.4529 82.0199 48.3478 81.7216C48.2456 81.4233 48.0936 81.1875 47.8919 81.0142C47.6902 80.8409 47.4387 80.7543 47.1376 80.7543C46.8336 80.7543 46.5779 80.8409 46.3706 81.0142C46.166 81.1875 46.0112 81.4233 45.9061 81.7216C45.8038 82.0199 45.7527 82.3594 45.7527 82.7401C45.7527 83.1207 45.8038 83.4602 45.9061 83.7585C46.0112 84.0568 46.166 84.2926 46.3706 84.4659C46.5779 84.6364 46.8336 84.7216 47.1376 84.7216ZM54.4885 86.1278C53.8265 86.1278 53.2541 85.9872 52.7711 85.706C52.291 85.4219 51.9203 85.027 51.6589 84.5213C51.3975 84.0128 51.2669 83.4233 51.2669 82.7528C51.2669 82.0767 51.3975 81.4858 51.6589 80.9801C51.9203 80.4716 52.291 80.0767 52.7711 79.7955C53.2541 79.5114 53.8265 79.3693 54.4885 79.3693C55.1504 79.3693 55.7214 79.5114 56.2015 79.7955C56.6845 80.0767 57.0566 80.4716 57.318 80.9801C57.5794 81.4858 57.7101 82.0767 57.7101 82.7528C57.7101 83.4233 57.5794 84.0128 57.318 84.5213C57.0566 85.027 56.6845 85.4219 56.2015 85.706C55.7214 85.9872 55.1504 86.1278 54.4885 86.1278ZM54.497 84.7216C54.7981 84.7216 55.0495 84.6364 55.2512 84.4659C55.4529 84.2926 55.6049 84.0568 55.7072 83.7585C55.8123 83.4602 55.8649 83.1207 55.8649 82.7401C55.8649 82.3594 55.8123 82.0199 55.7072 81.7216C55.6049 81.4233 55.4529 81.1875 55.2512 81.0142C55.0495 80.8409 54.7981 80.7543 54.497 80.7543C54.193 80.7543 53.9373 80.8409 53.7299 81.0142C53.5254 81.1875 53.3706 81.4233 53.2654 81.7216C53.1632 82.0199 53.112 82.3594 53.112 82.7401C53.112 83.1207 53.1632 83.4602 53.2654 83.7585C53.3706 84.0568 53.5254 84.2926 53.7299 84.4659C53.9373 84.6364 54.193 84.7216 54.497 84.7216ZM58.8904 86V79.4545H60.6206V80.6094H60.6973C60.8336 80.2259 61.0609 79.9233 61.3791 79.7017C61.6973 79.4801 62.0779 79.3693 62.5211 79.3693C62.97 79.3693 63.3521 79.4815 63.6674 79.706C63.9828 79.9276 64.193 80.2287 64.2981 80.6094H64.3663C64.4998 80.2344 64.7413 79.9347 65.0907 79.7102C65.443 79.483 65.8592 79.3693 66.3393 79.3693C66.9501 79.3693 67.4458 79.5639 67.8265 79.9531C68.2101 80.3395 68.4018 80.8878 68.4018 81.598V86H66.5907V81.956C66.5907 81.5923 66.4941 81.3196 66.301 81.1378C66.1078 80.956 65.8663 80.8651 65.5765 80.8651C65.247 80.8651 64.9899 80.9702 64.8052 81.1804C64.6206 81.3878 64.5282 81.6619 64.5282 82.0028V86H62.7683V81.9176C62.7683 81.5966 62.676 81.3409 62.4913 81.1506C62.3095 80.9602 62.0694 80.8651 61.7711 80.8651C61.5694 80.8651 61.3876 80.9162 61.2257 81.0185C61.0666 81.1179 60.9402 81.2585 60.8464 81.4403C60.7527 81.6193 60.7058 81.8295 60.7058 82.071V86H58.8904ZM72.6472 86V77.2727H74.4924V80.8736H78.2381V77.2727H80.079V86H78.2381V82.3949H74.4924V86H72.6472ZM84.6941 86H81.6003V77.2727H84.7196C85.5975 77.2727 86.3532 77.4474 86.9867 77.7969C87.6202 78.1435 88.1074 78.642 88.4483 79.2926C88.7921 79.9432 88.964 80.7216 88.964 81.6278C88.964 82.5369 88.7921 83.3182 88.4483 83.9716C88.1074 84.625 87.6174 85.1264 86.9782 85.4759C86.3418 85.8253 85.5804 86 84.6941 86ZM83.4455 84.419H84.6174C85.1628 84.419 85.6216 84.3224 85.9938 84.1293C86.3688 83.9332 86.65 83.6307 86.8375 83.2216C87.0279 82.8097 87.123 82.2784 87.123 81.6278C87.123 80.983 87.0279 80.456 86.8375 80.0469C86.65 79.6378 86.3702 79.3366 85.998 79.1435C85.6259 78.9503 85.1671 78.8537 84.6216 78.8537H83.4455V84.419ZM90.3308 86V77.2727H93.8251C94.4672 77.2727 95.0027 77.3679 95.4316 77.5582C95.8606 77.7486 96.1831 78.0128 96.399 78.3509C96.6149 78.6861 96.7228 79.0724 96.7228 79.5099C96.7228 79.8509 96.6547 80.1506 96.5183 80.4091C96.3819 80.6648 96.1944 80.875 95.9558 81.0398C95.72 81.2017 95.4501 81.3168 95.1461 81.3849V81.4702C95.4785 81.4844 95.7896 81.5781 96.0794 81.7514C96.372 81.9247 96.6092 82.1676 96.791 82.4801C96.9728 82.7898 97.0637 83.1591 97.0637 83.5881C97.0637 84.0511 96.9487 84.4645 96.7186 84.8281C96.4913 85.1889 96.1547 85.4744 95.7086 85.6847C95.2626 85.8949 94.7129 86 94.0595 86H90.3308ZM92.176 84.4915H93.6802C94.1944 84.4915 94.5694 84.3935 94.8052 84.1974C95.041 83.9986 95.1589 83.7344 95.1589 83.4048C95.1589 83.1634 95.1007 82.9503 94.9842 82.7656C94.8677 82.581 94.7015 82.4361 94.4856 82.331C94.2725 82.2259 94.0183 82.1733 93.7228 82.1733H92.176V84.4915ZM92.176 80.9247H93.5439C93.7967 80.9247 94.0211 80.8807 94.2172 80.7926C94.416 80.7017 94.5723 80.5739 94.6859 80.4091C94.8024 80.2443 94.8606 80.0469 94.8606 79.8168C94.8606 79.5014 94.7484 79.2472 94.524 79.054C94.3024 78.8608 93.987 78.7642 93.5779 78.7642H92.176V80.9247Z" fill="#677278"/>
<line x1="22" y1="71" x2="98" y2="71" stroke="#677278" stroke-width="2"/>
<line x1="32" y1="1" x2="88" y2="0.999995" stroke="#677278" stroke-width="2"/>
<line x1="33" y1="4.37114e-08" x2="33" y2="70" stroke="#677278" stroke-width="2"/>
<line x1="89" y1="4.37114e-08" x2="89" y2="70" stroke="#677278" stroke-width="2"/>
<rect x="41" y="9" width="9" height="9" fill="#2ABFC1" stroke="#677278" stroke-width="2"/>
<rect x="56" y="9" width="9" height="9" fill="#2ABFC1" stroke="#677278" stroke-width="2"/>
<rect x="71" y="9" width="9" height="9" stroke="#677278" stroke-width="2"/>
<rect x="41" y="25" width="9" height="9" stroke="#677278" stroke-width="2"/>
<rect x="56" y="25" width="9" height="9" stroke="#677278" stroke-width="2"/>
<rect x="71" y="25" width="9" height="9" stroke="#677278" stroke-width="2"/>
<rect x="41" y="40" width="9" height="9" stroke="#677278" stroke-width="2"/>
<rect x="56" y="40" width="9" height="9" stroke="#677278" stroke-width="2"/>
<rect x="56" y="55" width="9" height="16" stroke="#677278" stroke-width="2"/>
<rect x="71" y="40" width="9" height="9" stroke="#677278" stroke-width="2"/>
<rect x="41" y="55" width="9" height="9" stroke="#677278" stroke-width="2"/>
<rect x="71" y="55" width="9" height="9" stroke="#677278" stroke-width="2"/>
</svg>
