<?xml version="1.0" encoding="iso-8859-1"?>
<!-- Uploaded to: SVG Repo, www.svgrepo.com, Generator: SVG Repo Mixer Tools -->
<svg fill="#000000" version="1.1" id="Capa_1" xmlns="http://www.w3.org/2000/svg" xmlns:xlink="http://www.w3.org/1999/xlink" 
	 viewBox="0 0 511 511" xml:space="preserve">
<g>
	<path d="M511,176h-56.559c-15.054-33.004-48.362-56-86.941-56s-71.887,22.996-86.941,56H0v183h16v32h47v-32h385v32h47v-32h16V176z
		 M367.5,135c44.388,0,80.5,36.112,80.5,80.5S411.888,296,367.5,296S287,259.888,287,215.5S323.112,135,367.5,135z M48,376H31v-17
		h17V376z M480,376h-17v-17h17V376z M496,344H15V191h260.191c-2.078,7.822-3.191,16.033-3.191,24.5c0,52.659,42.841,95.5,95.5,95.5
		s95.5-42.841,95.5-95.5c0-8.467-1.113-16.678-3.191-24.5H496V344z"/>
	<path d="M367.5,279c35.014,0,63.5-28.486,63.5-63.5S402.514,152,367.5,152S304,180.486,304,215.5S332.486,279,367.5,279z
		 M367.5,167c26.743,0,48.5,21.757,48.5,48.5S394.243,264,367.5,264S319,242.243,319,215.5S340.757,167,367.5,167z"/>
	<path d="M231.5,208c-12.958,0-23.5,10.542-23.5,23.5s10.542,23.5,23.5,23.5s23.5-10.542,23.5-23.5S244.458,208,231.5,208z
		 M231.5,240c-4.687,0-8.5-3.813-8.5-8.5s3.813-8.5,8.5-8.5s8.5,3.813,8.5,8.5S236.187,240,231.5,240z"/>
	<rect x="40" y="215.5" width="15" height="104"/>
	<rect x="80" y="215.5" width="15" height="104"/>
	<rect x="120" y="215.5" width="15" height="104"/>
	<rect x="159.5" y="224" width="32" height="15"/>
	<path d="M384,215.5h15c0-17.369-14.131-31.5-31.5-31.5v15C376.598,199,384,206.402,384,215.5z"/>
</g>
</svg>