<svg width="120" height="98" viewBox="0 0 120 98" fill="none" xmlns="http://www.w3.org/2000/svg">
<path d="M19.6257 85.7827C19.5916 85.4389 19.4453 85.1719 19.1868 84.9815C18.9283 84.7912 18.5774 84.696 18.1342 84.696C17.8331 84.696 17.5788 84.7386 17.3714 84.8239C17.1641 84.9062 17.005 85.0213 16.8942 85.169C16.7862 85.3168 16.7322 85.4844 16.7322 85.6719C16.7266 85.8281 16.7592 85.9645 16.8303 86.081C16.9041 86.1974 17.005 86.2983 17.1328 86.3835C17.2607 86.4659 17.4084 86.5384 17.576 86.6009C17.7436 86.6605 17.9226 86.7116 18.1129 86.7543L18.897 86.9418C19.2777 87.027 19.6271 87.1406 19.9453 87.2827C20.2635 87.4247 20.5391 87.5994 20.772 87.8068C21.005 88.0142 21.1854 88.2585 21.3132 88.5398C21.4439 88.821 21.5107 89.1435 21.5135 89.5071C21.5107 90.0412 21.3743 90.5043 21.1044 90.8963C20.8374 91.2855 20.451 91.5881 19.9453 91.804C19.4425 92.017 18.8359 92.1236 18.1257 92.1236C17.4212 92.1236 16.8075 92.0156 16.2848 91.7997C15.7649 91.5838 15.3587 91.2642 15.0661 90.8409C14.7763 90.4148 14.6243 89.8878 14.6101 89.2599H16.3956C16.4155 89.5526 16.4993 89.7969 16.647 89.9929C16.7976 90.1861 16.9979 90.3324 17.2479 90.4318C17.5007 90.5284 17.7862 90.5767 18.1044 90.5767C18.4169 90.5767 18.6882 90.5312 18.9183 90.4403C19.1513 90.3494 19.3317 90.223 19.4595 90.0611C19.5874 89.8991 19.6513 89.7131 19.6513 89.5028C19.6513 89.3068 19.593 89.142 19.4766 89.0085C19.3629 88.875 19.1953 88.7614 18.9737 88.6676C18.755 88.5739 18.4865 88.4886 18.1683 88.4119L17.218 88.1733C16.4822 87.9943 15.9013 87.7145 15.4751 87.3338C15.049 86.9531 14.8374 86.4403 14.8402 85.7955C14.8374 85.267 14.978 84.8054 15.2621 84.4105C15.549 84.0156 15.9425 83.7074 16.4425 83.4858C16.9425 83.2642 17.5107 83.1534 18.147 83.1534C18.7947 83.1534 19.3601 83.2642 19.843 83.4858C20.3288 83.7074 20.7067 84.0156 20.9766 84.4105C21.2464 84.8054 21.3857 85.2628 21.3942 85.7827H19.6257ZM25.7035 92.1278C25.0302 92.1278 24.4506 91.9915 23.9648 91.7188C23.4819 91.4432 23.1097 91.054 22.8484 90.5511C22.587 90.0455 22.4563 89.4474 22.4563 88.7571C22.4563 88.0838 22.587 87.4929 22.8484 86.9844C23.1097 86.4759 23.4776 86.0795 23.9521 85.7955C24.4293 85.5114 24.989 85.3693 25.631 85.3693C26.0629 85.3693 26.4648 85.4389 26.837 85.5781C27.212 85.7145 27.5387 85.9205 27.8171 86.196C28.0984 86.4716 28.3171 86.8182 28.4734 87.2358C28.6296 87.6506 28.7077 88.1364 28.7077 88.6932V89.1918H23.1808V88.0668H26.9989C26.9989 87.8054 26.9421 87.5739 26.8285 87.3722C26.7148 87.1705 26.5572 87.0128 26.3555 86.8991C26.1566 86.7827 25.9251 86.7244 25.6609 86.7244C25.3853 86.7244 25.141 86.7884 24.9279 86.9162C24.7177 87.0412 24.5529 87.2102 24.4336 87.4233C24.3143 87.6335 24.2532 87.8679 24.2504 88.1264V89.196C24.2504 89.5199 24.31 89.7997 24.4293 90.0355C24.5515 90.2713 24.7234 90.4531 24.945 90.581C25.1665 90.7088 25.4293 90.7727 25.7333 90.7727C25.935 90.7727 26.1197 90.7443 26.2873 90.6875C26.4549 90.6307 26.5984 90.5455 26.7177 90.4318C26.837 90.3182 26.9279 90.179 26.9904 90.0142L28.6694 90.125C28.5842 90.5284 28.4094 90.8807 28.1452 91.1818C27.8839 91.4801 27.5458 91.7131 27.131 91.8807C26.7191 92.0455 26.2433 92.1278 25.7035 92.1278ZM29.8924 92V85.4545H31.6225V86.6094H31.6992C31.8356 86.2259 32.0629 85.9233 32.381 85.7017C32.6992 85.4801 33.0799 85.3693 33.5231 85.3693C33.9719 85.3693 34.354 85.4815 34.6694 85.706C34.9847 85.9276 35.195 86.2287 35.3001 86.6094H35.3683C35.5018 86.2344 35.7433 85.9347 36.0927 85.7102C36.445 85.483 36.8612 85.3693 37.3413 85.3693C37.9521 85.3693 38.4478 85.5639 38.8285 85.9531C39.212 86.3395 39.4038 86.8878 39.4038 87.598V92H37.5927V87.956C37.5927 87.5923 37.4961 87.3196 37.3029 87.1378C37.1097 86.956 36.8683 86.8651 36.5785 86.8651C36.2489 86.8651 35.9918 86.9702 35.8072 87.1804C35.6225 87.3878 35.5302 87.6619 35.5302 88.0028V92H33.7702V87.9176C33.7702 87.5966 33.6779 87.3409 33.4933 87.1506C33.3114 86.9602 33.0714 86.8651 32.7731 86.8651C32.5714 86.8651 32.3896 86.9162 32.2276 87.0185C32.0685 87.1179 31.9421 87.2585 31.8484 87.4403C31.7546 87.6193 31.7077 87.8295 31.7077 88.071V92H29.8924ZM40.8377 92V85.4545H42.6531V92H40.8377ZM41.7496 84.6108C41.4798 84.6108 41.2482 84.5213 41.055 84.3423C40.8647 84.1605 40.7695 83.9432 40.7695 83.6903C40.7695 83.4403 40.8647 83.2259 41.055 83.0469C41.2482 82.8651 41.4798 82.7741 41.7496 82.7741C42.0195 82.7741 42.2496 82.8651 42.44 83.0469C42.6332 83.2259 42.7298 83.4403 42.7298 83.6903C42.7298 83.9432 42.6332 84.1605 42.44 84.3423C42.2496 84.5213 42.0195 84.6108 41.7496 84.6108ZM48.1854 87.696V89.1364H44.2053V87.696H48.1854ZM52.8601 92H49.7663V83.2727H52.8857C53.7635 83.2727 54.5192 83.4474 55.1527 83.7969C55.7862 84.1435 56.2734 84.642 56.6143 85.2926C56.9581 85.9432 57.13 86.7216 57.13 87.6278C57.13 88.5369 56.9581 89.3182 56.6143 89.9716C56.2734 90.625 55.7834 91.1264 55.1442 91.4759C54.5078 91.8253 53.7464 92 52.8601 92ZM51.6115 90.419H52.7834C53.3288 90.419 53.7876 90.3224 54.1598 90.1293C54.5348 89.9332 54.8161 89.6307 55.0036 89.2216C55.1939 88.8097 55.2891 88.2784 55.2891 87.6278C55.2891 86.983 55.1939 86.456 55.0036 86.0469C54.8161 85.6378 54.5362 85.3366 54.1641 85.1435C53.7919 84.9503 53.3331 84.8537 52.7876 84.8537H51.6115V90.419ZM61.4457 92.1278C60.7724 92.1278 60.1928 91.9915 59.707 91.7188C59.2241 91.4432 58.8519 91.054 58.5906 90.5511C58.3292 90.0455 58.1985 89.4474 58.1985 88.7571C58.1985 88.0838 58.3292 87.4929 58.5906 86.9844C58.8519 86.4759 59.2198 86.0795 59.6942 85.7955C60.1715 85.5114 60.7312 85.3693 61.3732 85.3693C61.805 85.3693 62.207 85.4389 62.5792 85.5781C62.9542 85.7145 63.2809 85.9205 63.5593 86.196C63.8406 86.4716 64.0593 86.8182 64.2156 87.2358C64.3718 87.6506 64.4499 88.1364 64.4499 88.6932V89.1918H58.9229V88.0668H62.7411C62.7411 87.8054 62.6843 87.5739 62.5707 87.3722C62.457 87.1705 62.2994 87.0128 62.0977 86.8991C61.8988 86.7827 61.6673 86.7244 61.4031 86.7244C61.1275 86.7244 60.8832 86.7884 60.6701 86.9162C60.4599 87.0412 60.2951 87.2102 60.1758 87.4233C60.0565 87.6335 59.9954 87.8679 59.9925 88.1264V89.196C59.9925 89.5199 60.0522 89.7997 60.1715 90.0355C60.2937 90.2713 60.4656 90.4531 60.6871 90.581C60.9087 90.7088 61.1715 90.7727 61.4755 90.7727C61.6772 90.7727 61.8619 90.7443 62.0295 90.6875C62.1971 90.6307 62.3406 90.5455 62.4599 90.4318C62.5792 90.3182 62.6701 90.179 62.7326 90.0142L64.4116 90.125C64.3263 90.5284 64.1516 90.8807 63.8874 91.1818C63.6261 91.4801 63.288 91.7131 62.8732 91.8807C62.4613 92.0455 61.9854 92.1278 61.4457 92.1278ZM69.1161 85.4545V86.8182H65.1744V85.4545H69.1161ZM66.0692 83.8864H67.8846V89.9886C67.8846 90.1562 67.9102 90.2869 67.9613 90.3807C68.0124 90.4716 68.0835 90.5355 68.1744 90.5724C68.2681 90.6094 68.3761 90.6278 68.4982 90.6278C68.5835 90.6278 68.6687 90.6207 68.7539 90.6065C68.8391 90.5895 68.9045 90.5767 68.9499 90.5682L69.2354 91.919C69.1445 91.9474 69.0167 91.9801 68.8519 92.017C68.6871 92.0568 68.4869 92.081 68.2511 92.0895C67.8136 92.1065 67.43 92.0483 67.1005 91.9148C66.7738 91.7812 66.5195 91.5739 66.3377 91.2926C66.1559 91.0114 66.0664 90.6562 66.0692 90.2273V83.8864ZM72.1651 92.1236C71.7475 92.1236 71.3754 92.0511 71.0487 91.9062C70.7219 91.7585 70.4634 91.5412 70.2731 91.2543C70.0856 90.9645 69.9918 90.6037 69.9918 90.1719C69.9918 89.8082 70.0586 89.5028 70.1921 89.2557C70.3256 89.0085 70.5075 88.8097 70.7376 88.6591C70.9677 88.5085 71.229 88.3949 71.5217 88.3182C71.8171 88.2415 72.1268 88.1875 72.4506 88.1562C72.8313 88.1165 73.1381 88.0795 73.3711 88.0455C73.604 88.0085 73.7731 87.9545 73.8782 87.8835C73.9833 87.8125 74.0359 87.7074 74.0359 87.5682V87.5426C74.0359 87.2727 73.9506 87.0639 73.7802 86.9162C73.6126 86.7685 73.3739 86.6946 73.0643 86.6946C72.7376 86.6946 72.4776 86.767 72.2844 86.9119C72.0913 87.054 71.9634 87.233 71.9009 87.4489L70.2219 87.3125C70.3072 86.9148 70.4748 86.571 70.7248 86.2812C70.9748 85.9886 71.2972 85.7642 71.6921 85.608C72.0898 85.4489 72.5501 85.3693 73.0728 85.3693C73.4364 85.3693 73.7844 85.4119 74.1168 85.4972C74.4521 85.5824 74.7489 85.7145 75.0075 85.8935C75.2688 86.0724 75.4748 86.3026 75.6254 86.5838C75.7759 86.8622 75.8512 87.196 75.8512 87.5852V92H74.1296V91.0923H74.0785C73.9734 91.2969 73.8327 91.4773 73.6566 91.6335C73.4805 91.7869 73.2688 91.9077 73.0217 91.9957C72.7745 92.081 72.489 92.1236 72.1651 92.1236ZM72.685 90.8707C72.9521 90.8707 73.1879 90.8182 73.3924 90.7131C73.5969 90.6051 73.7575 90.4602 73.8739 90.2784C73.9904 90.0966 74.0487 89.8906 74.0487 89.6605V88.9659C73.9918 89.0028 73.9137 89.0369 73.8143 89.0682C73.7177 89.0966 73.6083 89.1236 73.4862 89.1491C73.364 89.1719 73.2418 89.1932 73.1197 89.2131C72.9975 89.2301 72.8867 89.2457 72.7873 89.2599C72.5742 89.2912 72.3881 89.3409 72.229 89.4091C72.07 89.4773 71.9464 89.5696 71.8583 89.6861C71.7702 89.7997 71.7262 89.9418 71.7262 90.1122C71.7262 90.3594 71.8157 90.5483 71.9947 90.679C72.1765 90.8068 72.4066 90.8707 72.685 90.8707ZM80.217 92.1278C79.5465 92.1278 78.9698 91.9858 78.4869 91.7017C78.0067 91.4148 77.6374 91.017 77.3789 90.5085C77.1232 90 76.9954 89.4148 76.9954 88.7528C76.9954 88.0824 77.1246 87.4943 77.3832 86.9886C77.6445 86.4801 78.0153 86.0838 78.4954 85.7997C78.9755 85.5128 79.5465 85.3693 80.2085 85.3693C80.7795 85.3693 81.2795 85.473 81.7085 85.6804C82.1374 85.8878 82.4769 86.179 82.7269 86.554C82.9769 86.929 83.1147 87.3693 83.1403 87.875H81.4272C81.3789 87.5483 81.2511 87.2855 81.0437 87.0866C80.8391 86.8849 80.5707 86.7841 80.2383 86.7841C79.957 86.7841 79.7113 86.8608 79.5011 87.0142C79.2937 87.1648 79.1317 87.3849 79.0153 87.6747C78.8988 87.9645 78.8406 88.3153 78.8406 88.7273C78.8406 89.1449 78.8974 89.5 79.011 89.7926C79.1275 90.0852 79.2908 90.3082 79.5011 90.4616C79.7113 90.6151 79.957 90.6918 80.2383 90.6918C80.4457 90.6918 80.6317 90.6491 80.7965 90.5639C80.9641 90.4787 81.1019 90.3551 81.2099 90.1932C81.3207 90.0284 81.3931 89.831 81.4272 89.6009H83.1403C83.1119 90.1009 82.9755 90.5412 82.7312 90.9219C82.4897 91.2997 82.1559 91.5952 81.7298 91.8082C81.3036 92.0213 80.7994 92.1278 80.217 92.1278ZM86.1179 88.2159V92H84.3026V83.2727H86.0668V86.6094H86.1435C86.2912 86.223 86.5298 85.9205 86.8594 85.7017C87.1889 85.4801 87.6023 85.3693 88.0994 85.3693C88.554 85.3693 88.9503 85.4688 89.2884 85.6676C89.6293 85.8636 89.8935 86.1463 90.081 86.5156C90.2713 86.8821 90.3651 87.321 90.3622 87.8324V92H88.5469V88.1562C88.5497 87.7528 88.4474 87.4389 88.2401 87.2145C88.0355 86.9901 87.7486 86.8778 87.3793 86.8778C87.1321 86.8778 86.9134 86.9304 86.723 87.0355C86.5355 87.1406 86.3878 87.294 86.2798 87.4957C86.1747 87.6946 86.1207 87.9347 86.1179 88.2159ZM94.7738 92.1278C94.1005 92.1278 93.521 91.9915 93.0352 91.7188C92.5522 91.4432 92.18 91.054 91.9187 90.5511C91.6573 90.0455 91.5266 89.4474 91.5266 88.7571C91.5266 88.0838 91.6573 87.4929 91.9187 86.9844C92.18 86.4759 92.5479 86.0795 93.0224 85.7955C93.4996 85.5114 94.0593 85.3693 94.7013 85.3693C95.1332 85.3693 95.5352 85.4389 95.9073 85.5781C96.2823 85.7145 96.609 85.9205 96.8874 86.196C97.1687 86.4716 97.3874 86.8182 97.5437 87.2358C97.6999 87.6506 97.7781 88.1364 97.7781 88.6932V89.1918H92.2511V88.0668H96.0692C96.0692 87.8054 96.0124 87.5739 95.8988 87.3722C95.7852 87.1705 95.6275 87.0128 95.4258 86.8991C95.2269 86.7827 94.9954 86.7244 94.7312 86.7244C94.4556 86.7244 94.2113 86.7884 93.9982 86.9162C93.788 87.0412 93.6232 87.2102 93.5039 87.4233C93.3846 87.6335 93.3235 87.8679 93.3207 88.1264V89.196C93.3207 89.5199 93.3803 89.7997 93.4996 90.0355C93.6218 90.2713 93.7937 90.4531 94.0153 90.581C94.2369 90.7088 94.4996 90.7727 94.8036 90.7727C95.0053 90.7727 95.19 90.7443 95.3576 90.6875C95.5252 90.6307 95.6687 90.5455 95.788 90.4318C95.9073 90.3182 95.9982 90.179 96.0607 90.0142L97.7397 90.125C97.6545 90.5284 97.4798 90.8807 97.2156 91.1818C96.9542 91.4801 96.6161 91.7131 96.2013 91.8807C95.7894 92.0455 95.3136 92.1278 94.7738 92.1278ZM101.375 92.1065C100.877 92.1065 100.427 91.9787 100.024 91.723C99.6232 91.4645 99.305 91.0852 99.0692 90.5852C98.8363 90.0824 98.7198 89.4659 98.7198 88.7358C98.7198 87.9858 98.8406 87.3622 99.082 86.8651C99.3235 86.3651 99.6445 85.9915 100.045 85.7443C100.449 85.4943 100.89 85.3693 101.37 85.3693C101.737 85.3693 102.042 85.4318 102.287 85.5568C102.534 85.679 102.733 85.8324 102.883 86.017C103.037 86.1989 103.153 86.3778 103.233 86.554H103.288V83.2727H105.099V92H103.309V90.9517H103.233C103.147 91.1335 103.027 91.3139 102.87 91.4929C102.717 91.669 102.517 91.8153 102.27 91.9318C102.025 92.0483 101.727 92.1065 101.375 92.1065ZM101.95 90.6619C102.243 90.6619 102.49 90.5824 102.691 90.4233C102.896 90.2614 103.052 90.0355 103.16 89.7457C103.271 89.456 103.326 89.1165 103.326 88.7273C103.326 88.3381 103.272 88 103.164 87.7131C103.056 87.4261 102.9 87.2045 102.696 87.0483C102.491 86.892 102.243 86.8139 101.95 86.8139C101.652 86.8139 101.4 86.8949 101.196 87.0568C100.991 87.2187 100.836 87.4432 100.731 87.7301C100.626 88.017 100.574 88.3494 100.574 88.7273C100.574 89.108 100.626 89.4446 100.731 89.7372C100.839 90.027 100.994 90.2543 101.196 90.419C101.4 90.581 101.652 90.6619 101.95 90.6619Z" fill="#677278"/>
<path d="M60.625 50.8322V30.1946M60.625 11.0671V1L95 27.1745L88.125 32.2081L82.5 27.8838M60.625 11.0671L82.5 27.8838M60.625 11.0671V21.1342M82.5 27.8838V70.9664M82.5 70.9664H90.625V76H30V70.9664H36.875H82.5ZM60.625 21.1342L26.5 48L31.875 52.3423L60.625 30.1946M60.625 21.1342V30.1946M30 38.5L50.625 22.6443" stroke="#677278" stroke-width="2" stroke-linejoin="round"/>
<path d="M48.5238 56H44.1905V51.5H77V56H73.2857M48.5238 56V71H60.2857V63.5V56M48.5238 56H60.2857M60.2857 56H73.2857M73.2857 56V71H38V48M67.0952 28V34.5H74.5V28H67.0952ZM67.0952 40.5V47H74.5V40.5H67.0952Z" stroke="#677278" stroke-width="2" stroke-linejoin="round"/>
</svg>
