<svg width="120" height="92" viewBox="0 0 120 92" fill="none" xmlns="http://www.w3.org/2000/svg">
<path d="M37.9027 78.794V77.2727H45.0703V78.794H42.3984V86H40.5746V78.794H37.9027ZM48.2504 86.1278C47.5771 86.1278 46.9975 85.9915 46.5117 85.7188C46.0288 85.4432 45.6566 85.054 45.3952 84.5511C45.1339 84.0455 45.0032 83.4474 45.0032 82.7571C45.0032 82.0838 45.1339 81.4929 45.3952 80.9844C45.6566 80.4759 46.0245 80.0795 46.4989 79.7955C46.9762 79.5114 47.5359 79.3693 48.1779 79.3693C48.6097 79.3693 49.0117 79.4389 49.3839 79.5781C49.7589 79.7145 50.0856 79.9205 50.364 80.196C50.6452 80.4716 50.864 80.8182 51.0202 81.2358C51.1765 81.6506 51.2546 82.1364 51.2546 82.6932V83.1918H45.7276V82.0668H49.5458C49.5458 81.8054 49.489 81.5739 49.3754 81.3722C49.2617 81.1705 49.104 81.0128 48.9023 80.8991C48.7035 80.7827 48.4719 80.7244 48.2077 80.7244C47.9322 80.7244 47.6879 80.7884 47.4748 80.9162C47.2646 81.0412 47.0998 81.2102 46.9805 81.4233C46.8612 81.6335 46.8001 81.8679 46.7972 82.1264V83.196C46.7972 83.5199 46.8569 83.7997 46.9762 84.0355C47.0984 84.2713 47.2702 84.4531 47.4918 84.581C47.7134 84.7088 47.9762 84.7727 48.2802 84.7727C48.4819 84.7727 48.6665 84.7443 48.8342 84.6875C49.0018 84.6307 49.1452 84.5455 49.2646 84.4318C49.3839 84.3182 49.4748 84.179 49.5373 84.0142L51.2163 84.125C51.131 84.5284 50.9563 84.8807 50.6921 85.1818C50.4308 85.4801 50.0927 85.7131 49.6779 85.8807C49.266 86.0455 48.7901 86.1278 48.2504 86.1278ZM52.4393 86V79.4545H54.1992V80.5966H54.2674C54.3867 80.1903 54.587 79.8835 54.8683 79.6761C55.1495 79.4659 55.4734 79.3608 55.8398 79.3608C55.9308 79.3608 56.0288 79.3665 56.1339 79.3778C56.239 79.3892 56.3313 79.4048 56.4109 79.4247V81.0355C56.3256 81.0099 56.2077 80.9872 56.0572 80.9673C55.9066 80.9474 55.7688 80.9375 55.6438 80.9375C55.3768 80.9375 55.1381 80.9957 54.9279 81.1122C54.7205 81.2259 54.5558 81.3849 54.4336 81.5895C54.3143 81.794 54.2546 82.0298 54.2546 82.2969V86H52.4393ZM57.3494 86V79.4545H59.1094V80.5966H59.1776C59.2969 80.1903 59.4972 79.8835 59.7784 79.6761C60.0597 79.4659 60.3835 79.3608 60.75 79.3608C60.8409 79.3608 60.9389 79.3665 61.044 79.3778C61.1491 79.3892 61.2415 79.4048 61.321 79.4247V81.0355C61.2358 81.0099 61.1179 80.9872 60.9673 80.9673C60.8168 80.9474 60.679 80.9375 60.554 80.9375C60.2869 80.9375 60.0483 80.9957 59.8381 81.1122C59.6307 81.2259 59.4659 81.3849 59.3438 81.5895C59.2244 81.794 59.1648 82.0298 59.1648 82.2969V86H57.3494ZM63.9386 86.1236C63.521 86.1236 63.1488 86.0511 62.8221 85.9062C62.4954 85.7585 62.2369 85.5412 62.0465 85.2543C61.859 84.9645 61.7653 84.6037 61.7653 84.1719C61.7653 83.8082 61.832 83.5028 61.9656 83.2557C62.0991 83.0085 62.2809 82.8097 62.511 82.6591C62.7411 82.5085 63.0025 82.3949 63.2951 82.3182C63.5906 82.2415 63.9002 82.1875 64.2241 82.1562C64.6048 82.1165 64.9116 82.0795 65.1445 82.0455C65.3775 82.0085 65.5465 81.9545 65.6516 81.8835C65.7567 81.8125 65.8093 81.7074 65.8093 81.5682V81.5426C65.8093 81.2727 65.7241 81.0639 65.5536 80.9162C65.386 80.7685 65.1474 80.6946 64.8377 80.6946C64.511 80.6946 64.2511 80.767 64.0579 80.9119C63.8647 81.054 63.7369 81.233 63.6744 81.4489L61.9954 81.3125C62.0806 80.9148 62.2482 80.571 62.4982 80.2812C62.7482 79.9886 63.0707 79.7642 63.4656 79.608C63.8633 79.4489 64.3235 79.3693 64.8462 79.3693C65.2099 79.3693 65.5579 79.4119 65.8903 79.4972C66.2255 79.5824 66.5224 79.7145 66.7809 79.8935C67.0423 80.0724 67.2482 80.3026 67.3988 80.5838C67.5494 80.8622 67.6246 81.196 67.6246 81.5852V86H65.9031V85.0923H65.8519C65.7468 85.2969 65.6062 85.4773 65.43 85.6335C65.2539 85.7869 65.0423 85.9077 64.7951 85.9957C64.5479 86.081 64.2624 86.1236 63.9386 86.1236ZM64.4585 84.8707C64.7255 84.8707 64.9613 84.8182 65.1658 84.7131C65.3704 84.6051 65.5309 84.4602 65.6474 84.2784C65.7638 84.0966 65.8221 83.8906 65.8221 83.6605V82.9659C65.7653 83.0028 65.6871 83.0369 65.5877 83.0682C65.4911 83.0966 65.3817 83.1236 65.2596 83.1491C65.1374 83.1719 65.0153 83.1932 64.8931 83.2131C64.771 83.2301 64.6602 83.2457 64.5607 83.2599C64.3477 83.2912 64.1616 83.3409 64.0025 83.4091C63.8434 83.4773 63.7198 83.5696 63.6317 83.6861C63.5437 83.7997 63.4996 83.9418 63.4996 84.1122C63.4996 84.3594 63.5891 84.5483 63.7681 84.679C63.9499 84.8068 64.18 84.8707 64.4585 84.8707ZM71.9904 86.1278C71.32 86.1278 70.7433 85.9858 70.2603 85.7017C69.7802 85.4148 69.4109 85.017 69.1523 84.5085C68.8967 84 68.7688 83.4148 68.7688 82.7528C68.7688 82.0824 68.8981 81.4943 69.1566 80.9886C69.418 80.4801 69.7887 80.0838 70.2688 79.7997C70.7489 79.5128 71.32 79.3693 71.9819 79.3693C72.5529 79.3693 73.0529 79.473 73.4819 79.6804C73.9109 79.8878 74.2504 80.179 74.5004 80.554C74.7504 80.929 74.8881 81.3693 74.9137 81.875H73.2006C73.1523 81.5483 73.0245 81.2855 72.8171 81.0866C72.6126 80.8849 72.3441 80.7841 72.0117 80.7841C71.7305 80.7841 71.4847 80.8608 71.2745 81.0142C71.0671 81.1648 70.9052 81.3849 70.7887 81.6747C70.6722 81.9645 70.614 82.3153 70.614 82.7273C70.614 83.1449 70.6708 83.5 70.7844 83.7926C70.9009 84.0852 71.0643 84.3082 71.2745 84.4616C71.4847 84.6151 71.7305 84.6918 72.0117 84.6918C72.2191 84.6918 72.4052 84.6491 72.57 84.5639C72.7376 84.4787 72.8754 84.3551 72.9833 84.1932C73.0941 84.0284 73.1665 83.831 73.2006 83.6009H74.9137C74.8853 84.1009 74.7489 84.5412 74.5046 84.9219C74.2631 85.2997 73.9293 85.5952 73.5032 85.8082C73.0771 86.0213 72.5728 86.1278 71.9904 86.1278ZM79.0589 86.1278C78.3857 86.1278 77.8061 85.9915 77.3203 85.7188C76.8374 85.4432 76.4652 85.054 76.2038 84.5511C75.9425 84.0455 75.8118 83.4474 75.8118 82.7571C75.8118 82.0838 75.9425 81.4929 76.2038 80.9844C76.4652 80.4759 76.8331 80.0795 77.3075 79.7955C77.7848 79.5114 78.3445 79.3693 78.9865 79.3693C79.4183 79.3693 79.8203 79.4389 80.1925 79.5781C80.5675 79.7145 80.8942 79.9205 81.1726 80.196C81.4538 80.4716 81.6726 80.8182 81.8288 81.2358C81.9851 81.6506 82.0632 82.1364 82.0632 82.6932V83.1918H76.5362V82.0668H80.3544C80.3544 81.8054 80.2976 81.5739 80.1839 81.3722C80.0703 81.1705 79.9126 81.0128 79.7109 80.8991C79.5121 80.7827 79.2805 80.7244 79.0163 80.7244C78.7408 80.7244 78.4964 80.7884 78.2834 80.9162C78.0732 81.0412 77.9084 81.2102 77.7891 81.4233C77.6697 81.6335 77.6087 81.8679 77.6058 82.1264V83.196C77.6058 83.5199 77.6655 83.7997 77.7848 84.0355C77.907 84.2713 78.0788 84.4531 78.3004 84.581C78.522 84.7088 78.7848 84.7727 79.0888 84.7727C79.2905 84.7727 79.4751 84.7443 79.6428 84.6875C79.8104 84.6307 79.9538 84.5455 80.0732 84.4318C80.1925 84.3182 80.2834 84.179 80.3459 84.0142L82.0249 84.125C81.9396 84.5284 81.7649 84.8807 81.5007 85.1818C81.2393 85.4801 80.9013 85.7131 80.4865 85.8807C80.0746 86.0455 79.5987 86.1278 79.0589 86.1278Z" fill="#677278"/>
<path d="M39 1L29.6895 10.6719" stroke="#677278" stroke-width="2" stroke-linecap="round"/>
<path d="M81.2983 0.999939L38.9475 0.999939" stroke="#677278" stroke-width="2" stroke-linecap="round"/>
<path d="M85.5 35.8771L34.5 35.8771" stroke="#677278" stroke-width="2" stroke-linecap="round"/>
<path d="M95.5 45.842L24.5 45.842" stroke="#677278" stroke-width="2" stroke-linecap="round"/>
<path d="M89 70.7543L30.5 70.7543" stroke="#677278" stroke-width="2" stroke-linecap="round"/>
<path d="M90.5 10.9648L29.5 10.9648" stroke="#677278" stroke-width="2" stroke-linecap="round"/>
<path d="M34.2105 34.8771L34.2104 10.9999" stroke="#677278" stroke-width="2" stroke-linecap="round"/>
<path d="M30.4736 70.5L30.4736 46" stroke="#677278" stroke-width="2" stroke-linecap="round"/>
<path d="M35.5 70.5L35.5 49" stroke="#677278" stroke-width="2" stroke-linecap="round"/>
<path d="M67.842 70.5L67.842 49" stroke="#677278" stroke-width="2" stroke-linecap="round"/>
<path d="M81.5439 70.5L81.5439 49" stroke="#677278" stroke-width="2" stroke-linecap="round"/>
<path d="M62.5 70.5L62.5 49" stroke="#677278" stroke-width="2" stroke-linecap="round"/>
<path d="M89.0176 70.5L89.0176 46" stroke="#677278" stroke-width="2" stroke-linecap="round"/>
<path d="M41.6841 30L41.6841 15.5" stroke="#677278" stroke-width="2" stroke-linecap="round"/>
<path d="M42 15.1929H50.1578" stroke="#677278" stroke-width="2" stroke-linecap="round"/>
<path d="M42 30.1403H50.1578" stroke="#677278" stroke-width="2" stroke-linecap="round"/>
<path d="M36 48.8245H62" stroke="#677278" stroke-width="2" stroke-linecap="round"/>
<path d="M49 67L49 49" stroke="#677278" stroke-width="2" stroke-linecap="round"/>
<path d="M37 67H62" stroke="#677278" stroke-width="2" stroke-linecap="round"/>
<path d="M68 48.8245H81.5" stroke="#677278" stroke-width="2" stroke-linecap="round"/>
<path d="M42 22.6666H50.1578" stroke="#677278" stroke-width="2" stroke-linecap="round"/>
<path d="M79 61.5L79 58" stroke="#677278" stroke-width="2" stroke-linecap="round"/>
<path d="M76.5613 61.5L76.5613 57.5" stroke="#677278" stroke-width="2" stroke-linecap="round"/>
<path d="M76.5088 57.5438H79" stroke="#677278" stroke-width="2" stroke-linecap="round"/>
<path d="M76.5088 61.5H79" stroke="#677278" stroke-width="2" stroke-linecap="round"/>
<path d="M50.4036 30L50.4036 15.5" stroke="#677278" stroke-width="2" stroke-linecap="round"/>
<path d="M55 30L55 15.5" stroke="#677278" stroke-width="2" stroke-linecap="round"/>
<path d="M55.3157 15.1929H63.4734" stroke="#677278" stroke-width="2" stroke-linecap="round"/>
<path d="M55.3157 30.1403H63.4734" stroke="#677278" stroke-width="2" stroke-linecap="round"/>
<path d="M55.3157 22.6666H63.4734" stroke="#677278" stroke-width="2" stroke-linecap="round"/>
<path d="M63.7192 30L63.7192 15.5" stroke="#677278" stroke-width="2" stroke-linecap="round"/>
<path d="M69 30L69 15.5" stroke="#677278" stroke-width="2" stroke-linecap="round"/>
<path d="M69.3157 15.1929H77.4734" stroke="#677278" stroke-width="2" stroke-linecap="round"/>
<path d="M69.3157 30.1403H77.4734" stroke="#677278" stroke-width="2" stroke-linecap="round"/>
<path d="M69.3157 22.6666H77.4734" stroke="#677278" stroke-width="2" stroke-linecap="round"/>
<path d="M77.7192 30L77.7192 15.5" stroke="#677278" stroke-width="2" stroke-linecap="round"/>
<path d="M85.2808 34.8771L85.2808 10.9999" stroke="#677278" stroke-width="2" stroke-linecap="round"/>
<path d="M81.5 1L90.5561 10.672" stroke="#677278" stroke-width="2" stroke-linecap="round"/>
<path d="M34.6721 35.5842L24.7072 45.5491" stroke="#677278" stroke-width="2" stroke-linecap="round"/>
<path d="M85.5735 35.5842L95.5384 45.5491" stroke="#677278" stroke-width="2" stroke-linecap="round"/>
</svg>
